<?xml version="1.0" standalone="no"?>
<!DOCTYPE svg PUBLIC "-//W3C//DTD SVG 1.1//EN" "http://www.w3.org/Graphics/SVG/1.1/DTD/svg11.dtd" >
<svg xmlns="http://www.w3.org/2000/svg">
<metadata>Generated by IcoMoon</metadata>
<defs>
<font id="icomoon" horiz-adv-x="1024">
<font-face units-per-em="1024" ascent="960" descent="-64" />
<missing-glyph horiz-adv-x="1024" />
<glyph unicode="&#x20;" horiz-adv-x="512" d="" />
<glyph unicode="&#xe900;" glyph-name="classperiod" d="M548.571 393.143h218.742c30.676 0 55.544-24.349 55.544-54.857 0-30.297-23.996-54.857-55.544-54.857h-254.626c-20.172 0-37.832 10.528-47.561 26.413-15.755 9.759-26.268 27.349-26.268 47.454v327.694c0 30.697 24.349 55.582 54.857 55.582 30.297 0 54.857-24.852 54.857-55.582v-291.847zM512 960c-282.772 0-512-229.227-512-512.001s229.226-511.999 512-511.999c282.768 0 512 229.227 512 511.999s-229.232 512.001-512 512.001z" />
<glyph unicode="&#xe901;" glyph-name="footer_phone" d="M512 960c-282.769 0-512-229.22-512-511.979s229.231-511.979 512-511.979 512 229.221 512 511.979c0 282.759-229.231 511.979-512 511.979v0zM512-26.203c-261.918 0-474.244 212.317-474.244 474.224s212.326 474.224 474.244 474.224c261.918 0 474.244-212.317 474.244-474.224s-212.326-474.224-474.244-474.224v0zM672.236 181.498l25.503 14.051c-20.171 24.604-38.606 49.921-55.666 75.817-16.925 25.682-32.537 52.057-47.154 78.918l-37.415-20.606c-49.369 69.553-91.506 144.378-124.909 225.518l37.905 20.88c-14.635 26.314-28.346 53.182-40.82 80.777-12.962 28.686-24.674 58.259-34.805 88.947l-25.174-13.864c-42.739-24.406-60.958-54.998-54.672-91.791l0.372-1.558-0.181-0.106c2.029-8.93 4.187-17.79 6.464-26.596l0.092-0.39 0.009-0.018c39.779-153.38 117.407-285.913 222.096-403.536 0.341-0.884 0.657-1.754 0.942-2.606 6.871-7.004 13.747-14.013 20.617-21.011 27.734-24.972 63.336-25.912 106.796-2.826v0 0zM719.346 207.456c-20.781 25.063-39.66 50.859-57.029 77.225-16.713 25.373-32.002 51.152-46.229 77.27l28.746 15.832c14.608-3.661 83.863-84.251 101.596-155.408l-27.085-14.919zM491.675 587.745c-14.207 25.576-27.607 51.879-39.922 79.113-13.201 29.199-25.072 59.401-35.257 90.851l24.31 13.395c33.586-26.648 80.56-143.909 75.631-169.715l-24.762-13.643z" />
<glyph unicode="&#xe902;" glyph-name="footer_QQ" d="M512-64v0 0c-282.77 0-512 229.23-512 512s229.23 512 512 512c282.77 0 512-229.23 512-512s-229.23-512-512-512zM512-29.867c263.918 0 477.867 213.948 477.867 477.867s-213.948 477.867-477.867 477.867c-263.918 0-477.867-213.948-477.867-477.867s213.948-477.867 477.867-477.867v0 0zM341.513 472.115l-0.913 2.782-0.741 3.615-0.492 1.98v8.156l0.882 3.21 0.897 3.394 1.186 3.562 1.599 3.967 2.099 4.12 2.965 4.128v2.889l0.289 2.706 0.46 3.677 1.272 4.135 1.17 4.464 0.936 2.049 1.077 1.911 1.389 2.125 1.514 1.582v10.204l0.874 5.259 0.882 6.107 1.568 7.307 2.161 7.605 1.607 4.181 1.592 4.548 1.748 4.242 2.091 4.548 2.13 4.976 2.45 4.663 2.754 4.976 3.472 4.968 1.607 2.851 1.709 2.331 3.722 5.259 3.831 5.244 4.346 5.396 4.658 5.251 5.056 5.175 5.274 5.32 6.382 5.74 4.049 3.493 4.939 3.768 5.009 3.325 5.415 3.195 5.204 2.843 5.867 2.354 6.234 2.897 6.195 1.987 6.179 2.064 6.678 2.049 6.671 1.559 7.014 1.299 7.115 1.124 7.022 0.917 7.014 0.94 7.482 0.397h22.103l7.365-0.91 7.404-0.864 7.544-0.772 7.006-1.651 7.396-1.544 6.944-1.773 7.607-1.98 6.959-2.415 6.663-2.759 7.115-2.92 6.491-3.187 6.312-3.547 6.187-3.906 5.329-3.631 2.473-2.049 2.59-1.498 4.946-4.112 4.166-3.975 4.158-4.112 4.049-4.54 3.339-4.403 3.979-4.548 2.77-4.884 2.809-4.342 2.98-5.052 2.473-4.395 4.158-9.302 2.044-4.808 1.599-4.456 1.599-4.838 1.436-4.548 0.999-3.914 1.295-4.601 2.27-8.217 1.451-7.193 0.944-6.956 0.811-5.595 1.28-8.523 0.289-1.353 1.022-1.536 2.754-4.41 1.771-2.989 1.568-3.111 1.997-3.333 1.763-3.998 1.147-4.089 1.248-4.487 0.944-4.601 0.429-2.263 0.398-2.79v-2.423l-0.398-2.4v-2.989l-0.718-2.897-1.311-5.61-1.506-2.836-1.116-3.187v-0.795l0.531-0.986 1.498-2.331 6.522-9.455 5.149-7.101 2.465-4.739 3.324-5.19 2.895-5.687 3.339-6.077 3.339-6.833 3.761-7.735 2.122-4.739 1.935-4.632 1.67-4.884 1.646-4.395 1.256-4.617 1.279-4.334 1.615-8.454 1.279-8.637 0.882-7.659v-10.808l-0.593-3.829-0.843-6.612-1.155-5.939-1.794-5.389-0.671-2.194-1.256-2.645-1.045-1.842-1.404-2.27-1.233-1.429-1.568-1.85-1.404-1.491-1.498-1.276-1.794-0.772-1.615-0.772-1.326-0.428h-2.029l-1.295 0.428-2.465 1.192-2.317 1.628-1.295 1.139-1.311 1.276-2.161 2.354-2.559 3.325-2.013 3.432-2.013 2.744-1.966 3.195-2.77 5.672-3.113 5.901-0.367 0.206h-0.515l-1.264-0.925-0.733-1.552-1.217-1.926-2.122-5.733-3.199-8.156-4.096-9.814-3.082-4.892-3.23-5.106-3.839-5.74-4.073-5.618-2.083-2.545-2.528-2.775-5.812-5.595 0.507-0.504 0.788-0.803 2.902-1.666 12.093-5.695 5.274-2.912 5.032-2.828 4.978-3.562 4.439-3.669 2.146-1.659 1.615-1.911 1.662-2.217 1.373-2.4 0.741-1.995 0.905-2.392 0.39-2.071 0.429-2.415-0.429-1.62v-1.643l-0.39-1.697-0.905-1.552-0.343-1.215-0.827-1.475-2.192-2.928-2.028-2.347-1.568-1.758-1.311-1.299-3.339-2.385-3.776-2.079-4.026-1.987-4.314-1.911-4.814-1.85-2.59-0.772-2.27-0.627-5.594-1.276-5.773-1.215-5.805-1.208-6.312-1.009-6.507-0.268-6.671-0.787h-20.706l-7.466 0.428-6.951 0.627-7.498 1.009-7.435 0.78-7.833 1.070-7.591 1.85-7.404 1.399-7.357 2.064-7.544 2.645-7.404 2.186-3.901 1.276-3.464 1.208-2.192 0.833-2.177 0.451h-6.156l-7.115 0.489-3.597 0.359-4.634 0.504-2.973-2.637-4.057-2.484-5.5-2.622-6.085-3.271-3.698-1.773-3.862-1.406-8.527-3.417-4.634-1.139-4.861-1.284-6.741-1.284-4.221-0.321-4.463-0.375-4.658-0.504-5.422-0.199h-22.15l-12.506 0.199-12.148 1.2-6.148 0.856-11.718 1.712-5.781 1.139-5.391 1.705-5.36 1.215-4.837 1.903-4.572 1.773-4.268 1.995-3.706 2.178-3.675 2.652-1.256 1.284-1.646 1.552-1.248 1.353-1.123 1.559-1.038 1.552-0.804 1.567-1.162 3.325-0.406 1.72-0.515 1.911v1.766l0.515 1.995v1.98l0.406 1.98v3.998l0.195 2.11 0.967 2.415 0.804 2.415 1.459 2.912 1.069 1.124 0.882 1.299 2.302 2.759 1.833 1.422 1.732 0.994 1.599 1.261 2.528 0.787 2.029 1.208 2.528 1.276 2.879 0.848 2.895 0.864 3.355 0.719 3.175 0.413 3.768 0.482 4.088 0.306 1.061 0.344h0.234l0.515 0.428v0.489l-0.749 0.994-2.169 1.009-5.422 4.601-3.643 2.843-4.213 3.615-4.244 4.044-4.416 5.167-5.087 5.824-1.896 3.149-2.512 3.256-2.169 3.761-1.95 4.112-2.629 3.914-1.716 4.464-2.044 4.456-2.044 4.968-1.482 4.762-1.412 5.886-0.421 0.214h-0.429l-0.218 0.42h-0.523l-0.858-0.42-0.429-0.214-0.593-0.986-0.211-1.2-0.445-1.070-0.772-1.781-2.481-4.326-1.287-2.622-2.044-2.285-2.169-2.752-2.395-3.050-2.528-2.706-2.973-2.622-2.746-2.461-3.043-1.957-3.324-2.041-3.199-1.215-3.768-0.925-3.698-0.352h-0.874l-0.85 0.352-0.671 1.437-1.084 0.703-1.42 3.409-0.889 1.842-0.952 2.645-0.788 2.744-0.421 2.706-1.17 6.161-0.445 3.631v11.909l0.445 8.89 0.733 4.54 0.858 4.678 0.788 5.037 1.397 4.686 1.568 5.396 1.615 5.259 2.161 5.412 2.036 5.159 2.816 5.236 2.614 5.679 3.199 5.328 3.761 5.748 3.823 5.167 3.995 5.748 3.331 4.005 4.268 4.586 4.494 4.624 2.091 2.201 2.536 2.477 3.683 3.126 3.784 3.187 6.156 5.404 4.642 3.325 1.654 1.208z" />
<glyph unicode="&#xe903;" glyph-name="home_AllCourses" d="M153.6 704c0 28.277 23.037 51.2 51.55 51.2h613.699c28.471 0 51.55-22.726 51.55-51.2 0-28.277-23.037-51.2-51.55-51.2h-613.699c-28.471 0-51.55 22.726-51.55 51.2v0 0zM153.6 448c0 28.277 23.037 51.2 51.55 51.2h613.699c28.471 0 51.55-22.726 51.55-51.2 0-28.277-23.037-51.2-51.55-51.2h-613.699c-28.471 0-51.55 22.726-51.55 51.2v0 0zM153.6 192c0 28.277 23.037 51.2 51.55 51.2h613.699c28.471 0 51.55-22.726 51.55-51.2 0-28.277-23.037-51.2-51.55-51.2h-613.699c-28.471 0-51.55 22.726-51.55 51.2v0 0z" />
<glyph unicode="&#xe904;" glyph-name="home_lunbo1" d="M1024 448c0-282.77-229.23-512-512-512s-512 229.23-512 512c0 282.77 229.23 512 512 512s512-229.23 512-512z" />
<glyph unicode="&#xe905;" glyph-name="home_lunbo2" d="M512-64v0 0 0c-282.77 0-512 229.23-512 512s229.23 512 512 512c282.77 0 512-229.23 512-512s-229.23-512-512-512zM512 21.333c235.641 0 426.667 191.025 426.667 426.667s-191.025 426.667-426.667 426.667c-235.641 0-426.667-191.025-426.667-426.667s191.025-426.667 426.667-426.667v0 0 0z" />
<glyph unicode="&#xe906;" glyph-name="home_ptjs_1a" d="M512-64v0 0c-282.77 0-512 229.23-512 512s229.23 512 512 512c282.77 0 512-229.23 512-512s-229.23-512-512-512zM541.741 287.634v72.263l0.731 0.454c5.105 3.17 13.079 7.581 21.521 12.252 3.036 1.679 6.134 3.393 9.183 5.095 8.799 4.913 18.647 10.075 29.073 15.54 26.756 14.025 54.422 28.528 68.258 40.819 27.081 24.038 36.959 41.676 46.656 67.753 23.354 62.788 18.049 150.879 17.993 151.762-0.37 6.109-5.262 11.054-11.378 11.507-0.062 0.005-6.548 0.467-17.341 0.467-27.515 0-81.525-2.929-134.114-22.549-26.972-10.058-49.208-26.012-69.977-50.211-15.345-17.883-30.894-49.13-44.613-76.699-1.787-3.591-3.55-7.135-5.287-10.599-5.954-11.868-11.578-23.076-16.392-31.72l-0.443-0.794h-77.976c-3.51 0-6.865-1.507-9.204-4.136l-50.797-54.999c-2.849-3.213-3.812-7.775-2.494-11.882 1.317-4.123 4.754-7.278 8.969-8.236l83.182-18.997 0.337-0.415c5.546-6.837 14.559-16.828 29.491-33.38l32.062-35.511 16.948-71.614c0.981-4.141 4.11-7.534 8.166-8.856 4.090-1.306 8.579-0.389 11.774 2.329l51.371 51.034c2.733 2.334 4.301 5.732 4.301 9.323v0 0zM517.132 366.322v-72.92l-31.608-34.693-13.123 55.433c-0.471 1.998-1.453 3.865-2.842 5.4-10.559 11.69-63.408 70.205-66.928 74.234-1.745 2.117-4.144 3.595-6.781 4.2l-66.104 15.101 33.453 35.317h79.469c4.244 0 8.261 2.244 10.483 5.855 6.088 9.902 13.136 23.955 21.296 40.228 1.736 3.46 3.526 7.061 5.357 10.747 13.016 26.191 27.769 55.877 41.226 71.563 18.168 21.183 36.639 34.502 59.893 43.184 48.999 18.289 99.888 21.019 125.86 21.019 0.936 0 1.834-0.004 2.697-0.010l1.511-0.011 0.027-1.509c0.421-24.003-0.385-84.631-16.924-129.096-8.637-23.216-16.45-37.091-39.926-57.939-12.299-10.917-38.837-24.747-64.502-38.121-10.371-5.405-20.167-10.51-28.494-15.16l-6.342-3.536c-17.617-9.819-28.25-15.746-33.172-19.768-2.878-2.342-4.527-5.811-4.527-9.519v0 0zM598.679 583.221c-29.783 0-54.014-24.203-54.014-53.953s24.23-53.954 54.014-53.954c29.783 0 54.014 24.203 54.014 53.954s-24.23 53.953-54.014 53.953v0 0zM598.679 500.009c-16.149 0-29.286 13.124-29.286 29.256s13.137 29.255 29.286 29.255c16.15 0 29.288-13.124 29.288-29.255s-13.139-29.256-29.288-29.256v0 0zM408.813 274.617c1.959 4.181 3.815 8.145 7.442 14.26l-18.322 16.622c-5.474-7.73-9.040-15.112-12.208-21.67l-0.217-0.45c-4.339-9.005-8.086-16.783-16.982-22.447-9.508-6.055-23.949-9.125-46.824-9.955l-1.654-0.060 0.049 1.653c1.379 46.245 9.883 52.399 28.986 61.912l0.102 0.051c7.092 3.534 15.847 7.896 25.294 14.955l-14.964 19.079c-6.496-4.788-12.539-7.741-18.395-10.603-1.010-0.494-2.015-0.984-3.014-1.482-29.133-14.51-42.858-28.857-42.858-97.49l0.213-12.56 12.058 0.27c34.43 0.001 57.34 3.707 72.134 11.667 13.235 7.119 20.075 17.331 27.418 32.565 0.625 1.296 1.192 2.506 1.744 3.686v0 0z" />
<glyph unicode="&#xe907;" glyph-name="home_ptjs_1b" d="M512-64v0 0 0c-282.77 0-512 229.23-512 512s229.23 512 512 512c282.77 0 512-229.23 512-512s-229.23-512-512-512zM512-38.4c268.631 0 486.4 217.769 486.4 486.4s-217.769 486.4-486.4 486.4c-268.631 0-486.4-217.769-486.4-486.4s217.769-486.4 486.4-486.4v0 0 0zM541.741 287.634v72.263l0.731 0.454c5.105 3.17 13.079 7.581 21.521 12.252 3.036 1.679 6.134 3.393 9.183 5.095 8.799 4.913 18.647 10.075 29.073 15.54 26.756 14.025 54.422 28.528 68.258 40.819 27.081 24.038 36.959 41.676 46.656 67.753 23.354 62.788 18.049 150.879 17.993 151.762-0.37 6.109-5.262 11.054-11.378 11.507-0.062 0.005-6.548 0.467-17.341 0.467-27.515 0-81.525-2.929-134.114-22.549-26.972-10.058-49.208-26.012-69.977-50.211-15.345-17.883-30.894-49.13-44.613-76.699-1.787-3.591-3.55-7.135-5.287-10.599-5.954-11.868-11.578-23.076-16.392-31.72l-0.443-0.794h-77.976c-3.51 0-6.865-1.507-9.204-4.136l-50.797-54.999c-2.849-3.213-3.812-7.775-2.494-11.882 1.317-4.123 4.754-7.278 8.969-8.236l83.182-18.997 0.337-0.415c5.546-6.837 14.559-16.828 29.491-33.38l32.062-35.511 16.948-71.614c0.981-4.141 4.11-7.534 8.166-8.856 4.090-1.306 8.579-0.389 11.774 2.329l51.371 51.034c2.733 2.334 4.301 5.732 4.301 9.323v0 0 0zM517.132 366.322v-72.92l-31.608-34.693-13.123 55.433c-0.471 1.998-1.453 3.865-2.842 5.4-10.559 11.69-63.408 70.205-66.928 74.234-1.745 2.117-4.144 3.595-6.781 4.2l-66.104 15.101 33.453 35.317h79.469c4.244 0 8.261 2.244 10.483 5.855 6.088 9.902 13.136 23.955 21.296 40.228 1.736 3.46 3.526 7.061 5.357 10.747 13.016 26.191 27.769 55.877 41.226 71.563 18.168 21.183 36.639 34.502 59.893 43.184 48.999 18.289 99.888 21.019 125.86 21.019 0.936 0 1.834-0.004 2.697-0.010l1.511-0.011 0.027-1.509c0.421-24.003-0.385-84.631-16.924-129.096-8.637-23.216-16.45-37.091-39.926-57.939-12.299-10.917-38.837-24.747-64.502-38.121-10.371-5.405-20.167-10.51-28.494-15.16l-6.342-3.536c-17.617-9.819-28.25-15.746-33.172-19.768-2.878-2.342-4.527-5.811-4.527-9.519v0 0 0 0 0 0zM598.679 583.221c-29.783 0-54.014-24.203-54.014-53.953s24.23-53.954 54.014-53.954c29.783 0 54.014 24.203 54.014 53.954s-24.23 53.953-54.014 53.953v0 0 0 0 0 0zM598.679 500.009c-16.149 0-29.286 13.124-29.286 29.256s13.137 29.255 29.286 29.255c16.15 0 29.288-13.124 29.288-29.255s-13.139-29.256-29.288-29.256v0 0 0zM408.813 274.617c1.959 4.181 3.815 8.145 7.442 14.26l-18.322 16.622c-5.474-7.73-9.040-15.112-12.208-21.67l-0.217-0.45c-4.339-9.005-8.086-16.783-16.982-22.447-9.508-6.055-23.949-9.125-46.824-9.955l-1.654-0.060 0.049 1.653c1.379 46.245 9.883 52.399 28.986 61.912l0.102 0.051c7.092 3.534 15.847 7.896 25.294 14.955l-14.964 19.079c-6.496-4.788-12.539-7.741-18.395-10.603-1.010-0.494-2.015-0.984-3.014-1.482-29.133-14.51-42.858-28.857-42.858-97.49l0.213-12.56 12.058 0.27c34.43 0.001 57.34 3.707 72.134 11.667 13.235 7.119 20.075 17.331 27.418 32.565 0.625 1.296 1.192 2.506 1.744 3.686v0 0 0z" />
<glyph unicode="&#xe908;" glyph-name="home_ptjs_2a" d="M512-64v0 0 0 0c-282.77 0-512 229.23-512 512s229.23 512 512 512c282.77 0 512-229.23 512-512s-229.23-512-512-512zM281.668 538.942v-194.653c0-17.935 14.749-30.689 32.902-30.689h32.903v-82.899l82.926 82.899h196.75c18.186 0 32.050 12.755 32.050 30.689v194.653c-0.001 17.917-13.864 30.658-32.050 30.658h-312.58c-18.153 0-32.902-12.741-32.902-30.658v0 0zM422.4 339.2l-51.2-51.2v51.2h-64v204.8h326.4v-204.8h-211.2zM388.603 417.259c13.656 0 24.676 10.93 24.676 24.364 0 13.418-11.020 24.317-24.676 24.317s-24.678-10.899-24.678-24.317c0-13.434 11.022-24.364 24.678-24.364v0 0 0 0 0 0zM470.861 417.259c13.655 0 24.676 10.93 24.676 24.364 0 13.418-11.020 24.317-24.676 24.317s-24.678-10.899-24.678-24.317c-0.001-13.434 11.020-24.364 24.678-24.364v0 0 0 0 0 0zM553.116 417.259c13.624 0 24.678 10.93 24.678 24.364 0 13.418-11.054 24.317-24.678 24.317-13.622 0-24.675-10.899-24.675-24.317 0-13.434 11.052-24.364 24.675-24.364v0 0 0 0zM364.8 620.8v-32h25.6v38.4h326.4v-204.8h-40.297v-29.444h32.903c18.186 0 32.902 14.512 32.902 32.444v194.654c0 17.917-14.716 32.444-32.902 32.444h-312.607c-18.155 0-32-13.783-32-31.699v0 0z" />
<glyph unicode="&#xe909;" glyph-name="home_ptjs_2b" d="M512-64v0 0c-282.77 0-512 229.23-512 512s229.23 512 512 512c282.77 0 512-229.23 512-512s-229.23-512-512-512zM512-38.4c268.631 0 486.4 217.769 486.4 486.4s-217.769 486.4-486.4 486.4c-268.631 0-486.4-217.769-486.4-486.4s217.769-486.4 486.4-486.4v0 0zM281.668 538.942v-194.653c0-17.935 14.749-30.689 32.902-30.689h32.903v-82.899l82.926 82.899h196.75c18.186 0 32.050 12.755 32.050 30.689v194.653c-0.001 17.917-13.864 30.658-32.050 30.658h-312.58c-18.153 0-32.902-12.741-32.902-30.658zM422.4 339.2l-51.2-51.2v51.2h-64v204.8h326.4v-204.8h-211.2zM388.603 417.259c13.656 0 24.676 10.93 24.676 24.364 0 13.418-11.020 24.317-24.676 24.317s-24.678-10.899-24.678-24.317c0-13.434 11.022-24.364 24.678-24.364v0 0 0 0zM470.861 417.259c13.655 0 24.676 10.93 24.676 24.364 0 13.418-11.020 24.317-24.676 24.317s-24.678-10.899-24.678-24.317c-0.001-13.434 11.020-24.364 24.678-24.364v0 0 0 0zM553.116 417.259c13.624 0 24.678 10.93 24.678 24.364 0 13.418-11.054 24.317-24.678 24.317-13.622 0-24.675-10.899-24.675-24.317 0-13.434 11.052-24.364 24.675-24.364v0 0zM364.8 620.8v-32h25.6v38.4h326.4v-204.8h-40.297v-29.444h32.903c18.186 0 32.902 14.512 32.902 32.444v194.654c0 17.917-14.716 32.444-32.902 32.444h-312.607c-18.155 0-32-13.783-32-31.699z" />
<glyph unicode="&#xe90a;" glyph-name="home_ptjs_3a" d="M512-64c282.77 0 512 229.23 512 512s-229.23 512-512 512c-282.77 0-512-229.23-512-512s229.23-512 512-512v0 0zM578.099 360.283l-9.051-9.051-136.188 136.188-197.157-197.157-18.102 18.102 215.466 215.466 18.102-18.102-0.207-0.207 118.087-118.086 244.376 244.376 18.102-18.102-253.427-253.427z" />
<glyph unicode="&#xe90b;" glyph-name="home_ptjs_3b" d="M578.099 360.283l253.427 253.427-18.102 18.102-244.376-244.376-118.087 118.086 0.207 0.207-18.102 18.102-215.466-215.466 18.102-18.102 197.157 197.157 136.188-136.188 9.051 9.051zM512-64v0 0c-282.77 0-512 229.23-512 512s229.23 512 512 512c282.77 0 512-229.23 512-512s-229.23-512-512-512zM512-38.4c268.631 0 486.4 217.769 486.4 486.4s-217.769 486.4-486.4 486.4c-268.631 0-486.4-217.769-486.4-486.4s217.769-486.4 486.4-486.4v0 0z" />
<glyph unicode="&#xe90c;" glyph-name="home_ptjs_4a" d="M512-64v0 0 0c-282.77 0-512 229.23-512 512s229.23 512 512 512c282.77 0 512-229.23 512-512s-229.23-512-512-512zM650.259 729.6h-276.518c-4.078 0-7.953-0.612-11.624-1.837s-6.729-3.061-9.176-5.51c-2.447-3.265-4.282-6.53-5.506-9.795s-1.835-6.938-1.835-11.019v-506.88c0-4.081 0.612-7.754 1.835-11.019s3.059-6.53 5.506-9.795c2.447-2.449 5.506-4.285 9.176-5.51s7.545-1.837 11.624-1.837h276.518c4.078 0 7.953 0.612 11.623 1.837s6.729 3.061 9.177 5.51c2.447 3.265 4.282 6.53 5.506 9.795s1.835 6.938 1.835 11.019v506.88c0 4.081-0.612 7.754-1.835 11.019s-3.059 6.53-5.506 9.795c-2.447 2.449-5.506 4.285-9.177 5.51s-7.545 1.837-11.623 1.837v0 0zM657.6 194.56c0-2.449-0.612-4.285-1.835-5.51s-3.059-1.837-5.506-1.837h-276.518c-2.447 0-4.282 0.612-5.506 1.837s-1.835 3.061-1.835 5.51v96.723h291.2v-96.723zM657.6 312.097h-291.2v334.247h291.2v-334.247zM657.6 667.158h-291.2v34.282c0 2.449 0.612 4.285 1.835 5.51s3.059 1.836 5.506 1.836h276.518c2.447 0 4.282-0.612 5.506-1.836s1.835-3.061 1.835-5.51v-34.282zM480.188 228.842h63.624v20.814h-63.624v-20.814z" />
<glyph unicode="&#xe90d;" glyph-name="home_ptjs_4b" d="M512-64v0 0c-282.77 0-512 229.23-512 512s229.23 512 512 512c282.77 0 512-229.23 512-512s-229.23-512-512-512zM512-38.4c268.631 0 486.4 217.769 486.4 486.4s-217.769 486.4-486.4 486.4c-268.631 0-486.4-217.769-486.4-486.4s217.769-486.4 486.4-486.4v0 0zM650.259 729.6h-276.518c-4.078 0-7.953-0.612-11.624-1.837s-6.729-3.061-9.176-5.51c-2.447-3.265-4.282-6.53-5.506-9.795s-1.835-6.938-1.835-11.019v-506.88c0-4.081 0.612-7.754 1.835-11.019s3.059-6.53 5.506-9.795c2.447-2.449 5.506-4.285 9.176-5.51s7.545-1.837 11.624-1.837h276.518c4.078 0 7.953 0.612 11.623 1.837s6.729 3.061 9.177 5.51c2.447 3.265 4.282 6.53 5.506 9.795s1.835 6.938 1.835 11.019v506.88c0 4.081-0.612 7.754-1.835 11.019s-3.059 6.53-5.506 9.795c-2.447 2.449-5.506 4.285-9.177 5.51s-7.545 1.837-11.623 1.837v0 0zM657.6 194.56c0-2.449-0.612-4.285-1.835-5.51s-3.059-1.837-5.506-1.837h-276.518c-2.447 0-4.282 0.612-5.506 1.837s-1.835 3.061-1.835 5.51v96.723h291.2v-96.723zM657.6 312.097h-291.2v334.247h291.2v-334.247zM657.6 667.158h-291.2v34.282c0 2.449 0.612 4.285 1.835 5.51s3.059 1.836 5.506 1.836h276.518c2.447 0 4.282-0.612 5.506-1.836s1.835-3.061 1.835-5.51v-34.282zM480.188 228.842h63.624v20.814h-63.624v-20.814z" />
<glyph unicode="&#xe90e;" glyph-name="home_search" d="M453.566 52.868c95.455 0 184.023 29.487 257.092 79.849l172.859-172.859c31.477-31.477 83.882-31.667 116.088 0.538 32.43 32.43 32.446 84.179 0.538 116.088l-172.859 172.859c50.362 73.069 79.849 161.637 79.849 257.092 0 250.498-203.069 453.566-453.566 453.566s-453.566-203.069-453.566-453.566c0-250.498 203.069-453.566 453.566-453.566zM453.566 217.801c-159.408 0-288.633 129.225-288.633 288.633s129.225 288.633 288.633 288.633c159.408 0 288.633-129.225 288.633-288.633 0-66.323-22.37-127.422-59.976-176.162-21.257-24.9-23.834-31.343-52.724-52.671-48.703-37.5-109.714-59.799-175.933-59.799z" />
<glyph unicode="&#xe90f;" glyph-name="ic_mtpj_right_jt1copy" d="M629.444 172.018c8.801-8.801 23.077-8.793 32.026 0.155v0c8.887 8.887 8.961 23.22 0.042 32.14l-240.512 240.512 240.512 240.512c8.864 8.864 8.907 23.191-0.042 32.14v0c-8.887 8.887-23.228 8.953-32.026 0.155l-256.871-256.871c-8.801-8.801-8.798-23.073 0-31.871l256.871-256.872z" />
<glyph unicode="&#xe910;" glyph-name="ic_mtpj_right_jt1" d="M394.556 172.018c-8.801-8.801-23.077-8.793-32.026 0.155v0c-8.887 8.887-8.961 23.22-0.042 32.14l240.512 240.512-240.512 240.512c-8.864 8.864-8.907 23.191 0.042 32.14v0c8.887 8.887 23.228 8.953 32.026 0.155l256.871-256.871c8.801-8.801 8.798-23.073 0-31.871l-256.871-256.872z" />
<glyph unicode="&#xe911;" glyph-name="ic_top_xl_1" d="M512 846.208c-219.584 0-398.208-178.656-398.208-398.208s178.656-398.208 398.208-398.208h7.968c219.616 0 390.272 178.656 390.272 398.208s-178.656 398.208-398.208 398.208v0 0 0h-0.032zM512 106.656c-188.512 0-341.344 152.8-341.344 341.344s152.8 341.344 341.344 341.344c188.512 0 341.344-152.8 341.344-341.344s-152.8-341.344-341.344-341.344v0 0 0 0zM463.584 399.424c5.12-5.088 12.128-8.32 19.84-8.32h227.808c16.096 0 28.32 12.736 28.32 28.448 0 15.264-12.672 28.448-28.32 28.448h-199.232v142.752c0 15.68-12.736 27.904-28.448 27.904-15.264 0-28.448-12.48-28.448-27.904v-171.744c0-7.808 3.168-14.784 8.288-19.776l0.192 0.192z" />
<glyph unicode="&#xe912;" glyph-name="ic_top_xl_2" d="M170.656 732.096v-568.224c0-63.072 51.008-114.112 113.92-114.112h511.68c63.104 0 113.92 51.104 113.92 114.112v568.224c0 63.072-51.008 114.112-113.92 114.112h-511.68c-63.104 0-113.92-51.104-113.92-114.112v0zM455.104 647.104c0 15.712 12.224 28.448 27.904 28.448h171.744c15.424 0 27.904-13.184 27.904-28.448v0c0-15.712-12.224-28.448-27.904-28.448h-171.744c-15.424 0-27.904 13.184-27.904 28.448v0 0 0zM455.104 533.344c0 15.712 12.288 28.448 28.192 28.448h114.304c15.552 0 28.192-13.184 28.192-28.448v0c0-15.712-12.288-28.448-28.192-28.448h-114.304c-15.552 0-28.192 13.184-28.192 28.448v0 0 0zM227.552 731.136c0 32.16 25.312 58.208 56.64 58.208h512.512c31.264 0 56.64-25.92 56.64-58.208v-566.272c0-32.16-25.312-58.208-56.64-58.208h-512.512c-31.296 0-56.64 25.92-56.64 58.208v566.272zM341.344 789.344h56.896v-682.656h-56.896v682.656z" />
<glyph unicode="&#xe913;" glyph-name="ic_top_xl_3" d="M745.44 789.344h-466.88c-91.008 0-164.768-73.248-164.768-163.552v-354.4c0-90.336 73.792-163.552 164.768-163.552h466.88c91.008 0 164.768 73.248 164.768 163.552v354.4c0 90.336-73.792 163.552-164.768 163.552v0 0zM738.368 745.024c20.48 0 39.744-4.704 56.608-12.96l-286.592-262.4-284.576 260.544c17.728 9.408 38.272 14.816 60.224 14.816h454.336zM864.384 272.48c0-66.56-54.752-120.48-122.304-120.48h-461.984c-67.552 0-122.304 53.952-122.304 120.48v348.064c0 29.984 11.136 57.408 29.536 78.496l299.328-294.944c6.080-5.984 13.6-9.28 20.416-9.568 0.352-0.032 0.704 0 1.056 0h1.024c6.816 0.288 14.304 3.616 20.416 9.6l302.432 297.984c20.064-21.472 32.288-50.112 32.288-81.568v-348.064h0.096z" />
<glyph unicode="&#xe914;" glyph-name="ic_top_xl_4" d="M668.352 49.248v0c-15.52 0-30.624 6.336-40.352 16.992-13.28 14.4-55.36 51.84-89.792 51.84-34.208 0-76.928-37.664-89.184-50.848-9.728-10.464-24.704-16.704-40.064-16.704-7.328 0-14.24 1.376-20.544 4.128l-1.088 0.48-104.672 57.888-1.024 0.704c-19.040 13.184-26.304 39.008-16.864 60.032 0.064 0.16 9.664 22.016 9.664 41.952 0 60.512-49.76 109.728-110.944 109.728h-4.384c-17.536 0-31.808 15.392-36.352 39.232-0.352 1.92-8.928 47.104-8.928 82.72s8.576 80.8 8.928 82.72c4.608 24.128 19.2 39.648 37.024 39.232h3.712c61.184 0 110.944 49.216 110.944 109.728 0 19.936-9.568 41.792-9.664 42.016-9.44 20.992-2.144 46.816 16.992 59.968l1.088 0.736 110.464 60 1.152 0.48c6.208 2.624 13.024 3.968 20.256 3.968 15.328 0 30.336-6.112 40.16-16.32 13.088-13.536 54.4-48.736 87.84-48.736 33.12 0 74.208 34.528 87.232 47.808 9.76 10.016 24.672 16.032 39.84 16.032 7.36 0 14.304-1.376 20.608-4.096l1.12-0.48 106.688-58.624 1.056-0.736c19.072-13.184 26.368-38.976 16.896-60.032-0.064-0.16-9.664-22.016-9.664-41.952 0-60.512 49.76-109.728 110.944-109.728h3.712c17.792 0.384 32.416-15.072 37.024-39.2 0.352-1.92 8.928-47.104 8.928-82.72s-8.576-80.8-8.928-82.72c-4.608-24.128-19.2-39.584-37.024-39.2h-3.712c-61.184 0-110.944-49.216-110.944-109.728 0-19.936 9.568-41.792 9.664-42.016 9.408-20.992 2.144-46.784-16.96-59.968l-1.056-0.736-108.48-59.296-1.12-0.48c-6.208-2.656-12.992-4-20.16-4v0l-0.032-0.064zM662.848 104.896c0.48-0.32 1.824-0.832 3.232-0.832h0.16l99.584 54.432c-2.4 5.536-13.408 32.32-13.408 60.288 0 83.616 66.592 152.128 150.048 156.416 1.216 6.56 7.712 43.456 7.712 71.168s-6.528 64.576-7.712 71.168c-83.488 4.288-150.048 72.8-150.048 156.416 0 28 11.040 54.848 13.408 60.32l-97.952 53.824h-0.416c-1.664 0-3.232-0.608-3.744-0.96-1.632-1.664-15.84-15.904-36.256-30.112-30.208-21.024-58.752-31.648-84.864-31.648-26.368 0-55.136 10.848-85.536 32.288-20.512 14.464-34.784 28.992-36.448 30.688-0.512 0.352-2.112 0.96-3.776 0.96h-0.352l-101.472-55.104c2.432-5.6 13.376-32.352 13.376-60.256 0-83.616-66.592-152.128-150.048-156.416-1.216-6.56-7.712-43.456-7.712-71.168s6.528-64.576 7.712-71.168c83.488-4.288 150.048-72.8 150.048-156.416 0-28.064-11.072-54.944-13.408-60.352l96.032-53.12h0.224c1.408 0 2.72 0.512 3.2 0.8 1.792 1.92 16.128 16.928 36.8 31.904 30.784 22.336 60.064 33.632 86.976 33.632 27.168 0 56.672-11.52 87.648-34.272 20.768-15.264 35.168-30.56 36.96-32.48v0h0.032zM537.984 302.592c-81.344 0-147.552 65.472-147.552 145.92s66.176 145.92 147.552 145.92c81.344 0 147.552-65.472 147.552-145.92s-66.176-145.92-147.552-145.92v0zM537.984 544.8c-53.696 0-97.344-43.2-97.344-96.288s43.68-96.288 97.344-96.288c53.696 0 97.344 43.2 97.344 96.288s-43.68 96.288-97.344 96.288v0z" />
<glyph unicode="&#xe915;" glyph-name="ic_top_xl_5" d="M398.208 789.536c-133.632-55.712-227.552-187.616-227.552-341.44 0-204.224 165.568-369.792 369.792-369.792s369.792 165.568 369.792 369.792c0 153.824-93.92 285.696-227.552 341.44v-62.656c101.312-51.776 170.656-157.184 170.656-278.784 0-172.8-140.096-312.896-312.896-312.896s-312.896 140.096-312.896 312.896c0 121.6 69.344 226.976 170.656 278.784v62.656zM512 818.304c0 15.424 13.184 27.936 28.448 27.936 15.712 0 28.448-12.96 28.448-27.936v-285.472c0-15.424-13.184-27.936-28.448-27.936-15.712 0-28.448 12.96-28.448 27.936v285.472z" />
<glyph unicode="&#xe916;" glyph-name="ic_apply_false" d="M512 0c-247.424 0-448 200.576-448 448s200.576 448 448 448c247.424 0 448-200.576 448-448s-200.576-448-448-448zM557.255 448l158.541 158.541c12.41 12.41 12.347 32.609-0.149 45.105-12.584 12.584-32.691 12.564-45.105 0.149l-158.541-158.541-158.541 158.541c-12.41 12.41-32.609 12.347-45.105-0.149-12.584-12.584-12.564-32.691-0.149-45.105l158.541-158.541-158.541-158.541c-12.41-12.41-12.347-32.609 0.149-45.105 12.584-12.584 32.691-12.564 45.105-0.149l158.541 158.541 158.541-158.541c12.41-12.41 32.609-12.347 45.105 0.149 12.584 12.584 12.564 32.691 0.149 45.105l-158.541 158.541z" />
<glyph unicode="&#xe917;" glyph-name="js_bz_bz" d="M513.816-64c-7.264 0-14.355 4.287-21.619 8.575-25.251 21.232-53.961 42.465-82.844 59.614-104.463 76.559-216.19 153.118-266.692 301.948-17.987 51.039-28.883 110.653-28.883 170.063v293.373c0 16.945 10.723 34.094 25.251 42.465l360.432 144.747c7.264 4.287 14.355 4.287 21.619 0l360.259-144.543c17.987-8.575 28.883-25.52 28.883-42.465v-293.578c0-63.901-10.723-119.023-28.883-170.063-50.502-148.83-162.229-225.389-266.692-301.948-28.883-21.232-53.961-38.177-82.844-59.614-3.632-4.287-10.723-8.575-17.987-8.575v0zM338.708 507.968l-75.597-78.555 179.2-186.213 318.578 331.045-75.597 78.555-242.981-252.489-103.603 107.657z" />
<glyph unicode="&#xe918;" glyph-name="js_bz_xxcg" d="M513.983 730.887c-217.476 0-393.778-177.94-393.778-397.444 0-219.5 176.302-397.444 393.778-397.444s393.778 177.943 393.778 397.444c0 219.504-176.302 397.444-393.778 397.444v0zM716.459 368.89l-77.641-76.385 18.328-107.858c6.156-36.21-14.338-52.044-47.193-34.609l-95.969 50.925-95.969-50.925c-32.217-17.094-53.47-2.318-47.193 34.609l18.328 107.858-77.641 76.385c-26.063 25.641-18.706 50.609 18.026 55.995l107.296 15.737 47.986 98.134c16.11 32.942 41.909 33.594 58.335 0l47.986-98.134 107.296-15.737c36.019-5.282 44.606-29.845 18.024-55.995zM882.093 960h-243.474c-13.139 0-23.673-9.284-26.763-21.575l-75.055-149.367c0 0 160.704-9.759 255.633-102.022l112.1 228.317c3.323 4.661 5.69 10.077 5.69 16.26-0.002 15.677-12.596 28.388-28.129 28.388zM487.198 789.057l-75.055 149.367c-3.090 12.292-13.624 21.575-26.763 21.575h-243.474c-15.533 0-28.127-12.712-28.127-28.389 0-6.183 2.365-11.599 5.69-16.26l112.1-228.317c94.927 92.264 255.63 102.023 255.63 102.023z" />
<glyph unicode="&#xe919;" glyph-name="ic_apply_note" d="M512 896c-247.425 0-448-200.576-448-447.999 0-247.426 200.577-448.001 448-448.001s448 200.577 448 448.001c0.001 247.422-200.577 447.999-448 447.999v0zM528 704c26.509 0 48-21.491 48-48s-21.491-48-48-48c-26.512 0-48 21.49-48 48s21.489 48 48 48v0zM576 224.793v0c-0.001-32.498-21.49-58.844-48.002-58.844-26.509 0-47.998 26.344-47.998 58.844 0 0.017 0.001 0.030 0.001 0.048v267.275h0.021c0.442 32.028 21.747 57.833 47.978 57.833 26.234 0 47.534-25.803 47.978-57.833h0.022v-267.323z" />
<glyph unicode="&#xe91a;" glyph-name="ic_apply_phone" d="M447.736 783.963l-0.665-215.052c0 0-95.117 6.791-78.721-110.042 0 0 29.255-146.323 121.751-195.944 20.925 0 93.675 2.681 106.91 0.847 45.652-6.462 104.112-107.791 109.908-135.675 12.432-60.75-54.007-51.152-87.665-51.152-31.538 0-68.271 0.683-99.809 0.683 0 0-240.026 200.674-262.269 453.194 0 0-28.101 302.117 190.561 253.14zM599.946 633.050v-59.776c0 0 74.92-66.099 58.536-191.948h58.523c0-0.051-15.644 237.561-117.059 251.724zM658.482 645.632c0 0 2.333 38.367 0 69.222 0 0 152.185-34.624 152.185-369.796h-64.030c0-0.013 29.644 210.879-88.155 300.574z" />
<glyph unicode="&#xe91b;" glyph-name="ic_apply_true" d="M512 0c-247.424 0-448 200.576-448 448s200.576 448 448 448c247.424 0 448-200.576 448-448s-200.576-448-448-448zM819.428 585.43c12.488 12.488 12.568 32.655-0.016 45.238-12.497 12.497-32.856 12.398-45.289-0.035l-307.044-307.044-175.131 175.131c-12.533 12.533-32.736 12.649-45.32 0.065-12.497-12.497-12.492-32.763-0.195-45.060l198.213-198.213c12.389-12.389 32.462-12.403 45.044 0.179l329.738 329.738z" />
<glyph unicode="&#xe91c;" glyph-name="ic_exit_login" d="M1012.549 892.931c15.163 15.163 15.37 40.271 0.012 55.63-14.909 14.909-40.265 15.353-55.629-0.012l-444.931-444.931-444.931 444.931c-15.163 15.163-40.271 15.37-55.629 0.012-14.909-14.909-15.353-40.265 0.012-55.63l444.931-444.931-444.931-444.931c-15.163-15.163-15.37-40.271-0.012-55.63 14.909-14.909 40.265-15.353 55.629 0.012l444.931 444.931 444.931-444.931c15.163-15.163 40.271-15.37 55.629-0.012 14.909 14.909 15.353 40.265-0.012 55.63l-444.931 444.931 444.931 444.931z" />
<glyph unicode="&#xe91d;" glyph-name="js_bz_xxfs" d="M56.889 788.997c0 63.024 50.435 114.115 114.115 114.115h169.993c63.024 0 114.115-50.435 114.115-114.115v-169.993c0-63.024-50.435-114.115-114.115-114.115h-169.993c-63.024 0-114.115 50.435-114.115 114.115v169.993zM568.889 788.997c0 63.024 50.435 114.115 114.115 114.115h169.993c63.024 0 114.115-50.435 114.115-114.115v-169.993c0-63.024-50.435-114.115-114.115-114.115h-169.993c-63.024 0-114.115 50.435-114.115 114.115v169.993zM568.889 276.997c0 63.024 50.435 114.115 114.115 114.115h169.993c63.024 0 114.115-50.435 114.115-114.115v-169.993c0-63.024-50.435-114.115-114.115-114.115h-169.993c-63.024 0-114.115 50.435-114.115 114.115v169.993zM56.889 276.997c0 63.024 50.435 114.115 114.115 114.115h169.993c63.024 0 114.115-50.435 114.115-114.115v-169.993c0-63.024-50.435-114.115-114.115-114.115h-169.993c-63.024 0-114.115 50.435-114.115 114.115v169.993z" />
<glyph unicode="&#xe91e;" glyph-name="js_bz_xxzq" d="M512 903.111c-251.351 0-455.111-203.76-455.111-455.111s203.76-455.111 455.111-455.111c251.351 0 455.111 203.76 455.111 455.111s-203.76 455.111-455.111 455.111v0 0 0 0zM739.556 352c0-9.817-7.959-17.778-17.778-17.778h-305.778c-0.724 0-1.435 0.055-2.135 0.14-1.081 0.13-2.138 0.343-3.15 0.658-0.085 0.028-0.167 0.065-0.252 0.093-7.103 2.329-12.238 9.001-12.238 16.885v305.779c0 9.819 7.961 17.778 17.778 17.778h78.222c9.817 0 17.778-7.959 17.778-17.778v-209.778h209.778c9.819 0 17.778-7.961 17.778-17.778v-78.222h-0.002z" />
<glyph unicode="&#xe91f;" glyph-name="cbl_kf" d="M544.006 960v0 0c264.644 0 480.019-213.531 479.994-475.938 0-262.42-215.362-475.925-480.006-475.925-40.636 0-81.208 5.143-120.773 15.341l-198.703-85.379c-3.471-1.407-7.149-2.098-10.775-2.098-8.233 0-16.272 3.493-21.796 9.954-8.027 9.327-9.136 22.698-2.774 33.138l73.594 119.388c-124.954 89.589-198.767 231.751-198.767 385.582 0 262.407 215.336 475.938 480.006 475.938zM778.325 572.038c0 31.385-25.667 56.809-57.334 56.809-31.642 0-57.27-25.461-57.27-56.809 0-31.385 25.667-56.821 57.27-56.821 31.706 0 57.334 25.436 57.334 56.821v0 0zM432.422 572.038c0 31.385-25.654 56.809-57.296 56.809-31.68 0-57.309-25.461-57.309-56.809 0-31.385 25.667-56.821 57.309-56.821s57.296 25.436 57.296 56.821v0 0zM681.4 408.33c-14.659 5.962-31.397-1.011-37.345-15.52-0.271-0.601-24.622-57.525-96.035-57.525-73.594 0-93.196 49.707-95.273 55.631-4.904 14.752-21.008 22.928-35.9 18.169-15.085-4.734-23.422-20.715-18.608-35.672 1.239-3.902 31.822-94.962 149.782-94.962 109.468 0 147.511 89.038 149.072 92.826 6.013 14.509-1.007 31.104-15.692 37.054v0 0zM235.655 452.51c-6.143 0-11.098-4.939-11.098-10.978 0-6.129 4.955-11.042 11.098-11.042 6.13 0 11.098 4.913 11.098 11.042 0 6.039-4.981 10.978-11.098 10.978v0 0zM286.666 452.51c-6.155 0-11.111-4.939-11.111-10.978 0-6.129 4.955-11.042 11.111-11.042s11.098 4.913 11.098 11.042c0 6.039-4.942 10.978-11.098 10.978v0 0zM261.206 418.271c-6.168 0-11.137-4.964-11.137-11.003 0-6.103 4.981-11.042 11.137-11.042 6.091 0 11.033 4.952 11.033 11.042 0 6.052-4.942 11.003-11.033 11.003v0 0zM312.178 418.271c-6.13 0-11.098-4.964-11.098-11.003 0-6.103 4.968-11.042 11.098-11.042 6.117 0 11.111 4.952 11.111 11.042 0 6.052-4.994 11.003-11.111 11.003v0 0zM286.666 385.21c-6.155 0-11.111-4.926-11.111-11.003s4.955-11.016 11.111-11.016c6.155 0 11.098 4.952 11.098 11.016 0 6.077-4.942 11.003-11.098 11.003v0 0zM344.168 452.51c-6.168 0-11.098-4.939-11.098-10.978 0-6.129 4.929-11.042 11.098-11.042 6.13 0 11.072 4.913 11.072 11.042 0 6.039-4.942 10.978-11.072 10.978v0 0zM768.079 452.51c-6.13 0-11.111-4.939-11.111-10.978 0-6.129 4.994-11.042 11.111-11.042s11.059 4.913 11.059 11.042c0 6.039-4.942 10.978-11.059 10.978v0 0zM819.052 452.51c-6.155 0-11.085-4.939-11.085-10.978 0-6.129 4.942-11.042 11.085-11.042 6.168 0 11.137 4.913 11.137 11.042-0.052 6.039-5.020 10.978-11.137 10.978v0 0zM793.604 418.271c-6.168 0-11.137-4.964-11.137-11.003 0-6.103 4.981-11.042 11.137-11.042 6.117 0 11.085 4.952 11.085 11.042-0.039 6.052-4.968 11.003-11.085 11.003v0 0zM844.564 418.271c-6.13 0-11.098-4.964-11.098-11.003 0-6.103 4.981-11.042 11.098-11.042 6.143 0 11.085 4.952 11.085 11.042 0.013 6.052-4.942 11.003-11.085 11.003v0 0zM819.052 385.21c-6.155 0-11.085-4.926-11.085-11.003s4.942-11.016 11.085-11.016c6.168 0 11.137 4.952 11.137 11.016-0.052 6.077-5.020 11.003-11.137 11.003v0 0zM876.58 452.51c-6.155 0-11.098-4.939-11.098-10.978 0-6.129 4.955-11.042 11.098-11.042 6.117 0 11.085 4.913 11.085 11.042 0 6.039-4.981 10.978-11.085 10.978v0 0z" />
<glyph unicode="&#xe920;" glyph-name="clb_ck" d="M871.253 819.194c19.966-19.103 35.87-34.96 47.699-47.571 11.841-12.611 20.902-23.306 27.181-32.094 6.288-8.788 10.167-16.243 11.646-22.355s2.221-11.464 2.221-16.046v-18.342h-164.178c-7.4 0-13.867 2.866-19.413 8.597s-10.172 12.42-13.867 20.060c-3.699 7.645-6.473 15.477-8.32 23.504-1.852 8.020-2.774 14.328-2.774 18.913v142.141h3.325c5.915 0 12.019-0.956 18.303-2.866 6.288-1.908 13.498-5.54 21.635-10.893 8.135-5.344 18.303-12.991 30.507-22.926s27.549-23.306 46.036-40.121v0 0zM688.214 705.14c4.436-16.439 11.463-31.72 21.076-45.852 9.616-14.138 21.818-25.792 36.611-34.966 14.787-9.168 32.169-13.752 52.136-13.752h161.964v-467.282c0-22.164-4.251-42.035-12.756-59.611s-19.782-32.481-33.837-44.705c-14.052-12.229-29.58-21.779-46.59-28.657-17.009-6.88-33.65-10.315-49.92-10.315h-545.795c-14.050 0-29.395 4.204-46.036 12.605-16.64 8.407-32.169 19.49-46.595 33.247-14.418 13.752-26.438 29.418-36.053 46.995-9.614 17.582-14.418 35.917-14.418 55.026v600.255c0 16.046 3.515 32.672 10.541 49.865 7.025 17.195 16.64 33.050 28.838 47.571 12.204 14.519 26.071 26.552 41.6 36.107 15.536 9.555 31.801 14.328 48.817 14.328h423.762v-143.288c-0.001-15.286 2.22-31.142 6.656-47.571zM751.448 300.233c19.223 0 35.496 2.95 48.81 8.849 13.309 5.896 19.966 12.991 19.966 21.282s-6.657 15.306-19.966 21.043c-13.315 5.74-29.585 8.61-48.81 8.61h-416.001c-19.23 0-35.502-2.87-48.817-8.61-13.308-5.738-19.966-12.754-19.966-21.043s6.657-15.385 19.966-21.282c13.315-5.899 29.585-8.849 48.817-8.849h416.001zM820.223 496.893c0 8.291-6.657 15.386-19.966 21.285-13.315 5.899-29.585 8.849-48.81 8.849h-416c-19.23 0-35.502-2.95-48.817-8.849-13.308-5.899-19.966-12.993-19.966-21.285 0-8.288 6.657-15.303 19.966-21.043 13.315-5.738 29.585-8.608 48.817-8.608h416.001c19.223 0 35.496 2.87 48.81 8.608 13.307 5.741 19.964 12.756 19.964 21.043v0 0z" />
<glyph unicode="&#xe921;" glyph-name="jkck" d="M512 960c-70.667 0-137.166-13.333-199.5-40s-116.666-63.166-163-109.5c-46.334-46.334-82.833-100.666-109.5-163s-40-128.833-40-199.5c0-70.667 13.333-137.166 40-199.5s63.166-116.666 109.5-163c46.334-46.334 100.666-82.833 163-109.5s128.833-40 199.5-40c70.667 0 137.166 13.333 199.5 40s116.666 63.166 163 109.5c46.334 46.334 82.833 100.666 109.5 163s40 128.833 40 199.5c0 70.667-13.333 137.166-40 199.5s-63.166 116.666-109.5 163c-46.334 46.334-100.666 82.833-163 109.5s-128.833 40-199.5 40v0zM512 0c-62 0-120.166 11.667-174.5 35s-101.833 55.333-142.5 96c-40.667 40.667-72.667 88.166-96 142.5s-35 112.5-35 174.5c0 62 11.667 120.166 35 174.5s55.333 101.833 96 142.5c40.667 40.667 88.166 72.667 142.5 96s112.5 35 174.5 35c62 0 120.166-11.667 174.5-35s101.833-55.333 142.5-96c40.667-40.667 72.667-88.166 96-142.5s35-112.5 35-174.5c0-62-11.667-120.166-35-174.5s-55.333-101.833-96-142.5c-40.667-40.667-88.166-72.667-142.5-96s-112.5-35-174.5-35v0zM657 476l-245 245c-6 6.667-13.5 10-22.5 10s-16.5-3.333-22.5-10c-6.667-6-10-13.5-10-22.5s3.333-16.5 10-22.5l228-228-228-228c-6.667-6-10-13.5-10-22.5s3.333-16.5 10-22.5c6-6.667 13.5-10 22.5-10s16.5 3.333 22.5 10l245 245c4 4 6.667 8.5 8 13.5s1.333 9.833 0 14.5c1.333 4.667 1.333 9.5 0 14.5s-4 9.5-8 13.5v0z" />
<glyph unicode="&#xe922;" glyph-name="dgy_wu" d="M256 334.583l155.382 112.969 25.088-34.511-155.382-112.969-25.088 34.511zM586.753 413.27l24.836 34.73 156.288-111.775-24.836-34.73-156.288 111.775zM386.549 135.023c0 45.485 67.641 69.266 134.457 69.266 66.844 0 134.485-23.781 134.485-69.266 0-11.777-9.557-21.391-21.333-21.391s-21.333 9.473-21.333 21.278c-1.707 7.965-34.987 26.711-91.819 26.711-56.747 0-89.998-18.661-91.79-26.682-0.057-11.748-9.586-21.249-21.333-21.249-11.776 0-21.333 9.558-21.333 21.335zM971.776 225.673c31.8-25.429 52.209-64.541 52.224-108.327 0-41.699-18.521-80.8-50.78-107.27-24.721-20.245-55.925-31.409-87.9-31.409-37.275 0-71.162 14.792-96.104 38.813-82.622-53.305-178.439-81.48-277.245-81.48-282.311 0-511.972 229.673-511.972 512 0 103.012 30.575 199.015 83.125 279.409l0.019 2.356 1.522-0.011c91.704 138.632 249.003 230.247 427.304 230.247 282.34 0 512.028-229.673 512.028-512 0-75.41-16.014-148.033-47.616-215.877-1.157-2.494-2.734-4.659-4.608-6.45zM936.352 246.271c0.327 1.313 0.783 2.614 1.376 3.887 28.956 62.155 43.605 128.69 43.605 197.842 0 30.582-2.94 60.49-8.552 89.456l-920.32 6.186c-6.42-30.887-9.794-62.878-9.794-95.642 0-258.802 210.517-469.331 469.305-469.331 89.466 0 176.235 25.172 251.323 72.878-10.604 19.591-16.628 42.006-16.628 65.8 0 76.453 62.201 138.654 138.654 138.654 18.010 0 35.23-3.452 51.032-9.729zM915.671 687.225l-803.736 5.964c-21.523-34.991-38.587-73.005-50.393-113.246l902.651-6.067c-11.205 40.202-27.64 78.246-48.522 113.349zM891.564 723.766c-85.413 117.236-223.752 193.565-379.592 193.565-153.31 0-289.696-73.903-375.394-187.963l754.987-5.602zM885.32 17.255v0 0c23.409 0 45.352 7.846 63.436 22.663 23.28 19.113 36.657 47.333 36.657 77.43 0 55.179-44.889 100.067-100.093 100.067-55.179 0-100.067-44.889-100.067-100.067 0-55.204 44.889-100.093 100.067-100.093z" />
<glyph unicode="&#xe923;" glyph-name="bz_dian" d="M731.429 448c0-121.187-98.242-219.429-219.429-219.429s-219.429 98.242-219.429 219.429c0 121.187 98.242 219.429 219.429 219.429s219.429-98.242 219.429-219.429z" />
<glyph unicode="&#xe924;" glyph-name="Warning" d="M512 960c-282.771 0-512-229.23-512-512 0-282.773 229.231-512.001 512-512.001s512 229.231 512 512.001c0.001 282.769-229.231 512-512 512v0zM511.787 758.972c36.313 0 65.753-29.44 65.753-65.753s-29.439-65.753-65.753-65.753c-36.317 0-65.752 29.439-65.752 65.753-0.001 36.313 29.436 65.753 65.752 65.753v0zM577.996 203.147v0c-0.001-36.566-29.643-66.208-66.211-66.208-36.564 0-66.206 29.641-66.206 66.208 0 0.019 0.001 0.034 0.001 0.054v300.726h0.029c0.609 36.036 29.997 65.071 66.178 65.071 36.185 0 65.565-29.032 66.178-65.071h0.030v-300.779z" />
<glyph unicode="&#xe925;" glyph-name="bl_backtop" d="M540.295 217.6h-56.589v350.316l-161.684-160.337-40.421 40.421 230.4 230.4 230.4-230.4-40.421-41.768-161.684 161.684v-350.316z" />
<glyph unicode="&#xe926;" glyph-name="bl_message" d="M768 589.112v-224.156c0-17.483-6.348-32.468-19.044-44.956s-27.785-18.732-45.268-18.732h-128v-96.156l-127.376 96.156h-128c-17.483 0-32.572 6.244-45.268 18.732s-19.044 27.473-19.044 44.956v224.156c0 17.483 6.348 32.468 19.044 44.956s27.785 18.732 45.268 18.732h383.376c17.483 0 32.572-6.244 45.268-18.732s19.044-27.473 19.044-44.956v0z" />
<glyph unicode="&#xe927;" glyph-name="bl_phone" d="M724.060 626.308l-42.351 42.351c-5.831 5.831-13.12 9.053-21.866 9.667s-15.575-2.609-20.485-9.667l-63.067-84.703c-4.91-7.059-7.596-14.424-8.056-22.096s2.225-14.424 8.056-20.255l24.858-25.319c-10.128-13.503-21.252-27.62-33.375-42.351s-25.088-29.001-38.899-42.812c-13.81-13.81-28.081-26.776-42.812-38.899s-28.848-23.247-42.351-33.375l-25.319 24.858c-5.831 5.831-12.583 8.516-20.255 8.056s-15.038-3.146-22.096-8.056l-84.703-63.067c-7.059-4.91-10.281-11.739-9.667-20.485s3.836-16.035 9.667-21.866l42.351-42.351c11.662-11.662 24.858-16.572 39.589-14.731s29.769 6.752 45.113 14.731c0 0 5.294 3.146 15.882 9.437s24.244 15.191 40.97 26.7c16.726 11.509 35.369 25.395 55.931 41.661s40.817 34.372 60.765 54.32c19.948 19.948 38.055 40.203 54.32 60.765s30.152 39.206 41.661 55.931c11.509 16.726 20.408 30.382 26.7 40.97s9.437 15.882 9.437 15.882c7.979 15.345 12.889 30.382 14.731 45.113s-3.069 27.927-14.731 39.589v0z" />
<glyph unicode="&#xe928;" glyph-name="bl_qq" d="M347.728 466.894c-1.4 3.324-2.099 7.872-2.099 13.646 0 3.499 0.962 7.785 2.887 12.858s4.024 9.010 6.298 11.809c-0.175 3.849 0.481 8.485 1.968 13.908s3.455 9.184 5.904 11.284c0 24.317 8.091 49.553 24.273 75.707s35.207 44.479 57.075 54.976c24.317 11.546 52.658 17.319 85.022 17.319 23.268 0 46.535-4.811 69.802-14.433 8.572-3.674 16.445-7.872 23.617-12.596s13.383-9.622 18.631-14.695c5.248-5.073 10.059-11.021 14.433-17.844s8.047-13.296 11.021-19.419c2.974-6.123 5.817-13.514 8.528-22.174s4.942-16.488 6.692-23.486c1.749-6.998 3.674-15.57 5.773-25.717l0.262-1.312c9.622-14.52 14.433-27.641 14.433-39.362 0-2.449-0.787-5.948-2.362-10.497s-2.362-7.872-2.362-9.972c0-0.175 0.131-0.481 0.394-0.918s0.569-0.875 0.918-1.312c0.35-0.437 0.525-0.744 0.525-0.918 13.471-19.944 24.011-38.706 31.621-56.288s11.415-35.819 11.415-54.713c0-7.523-1.706-16.27-5.117-26.241s-8.266-14.958-14.564-14.958c-1.575 0-3.28 0.656-5.117 1.968s-3.499 2.843-4.986 4.592c-1.487 1.749-3.149 4.024-4.986 6.823s-3.236 5.117-4.199 6.954c-0.962 1.837-2.143 4.111-3.543 6.823s-2.187 4.242-2.362 4.592c-0.175 0.175-0.437 0.262-0.787 0.262l-1.312-1.050c-10.322-26.941-21.868-46.447-34.639-58.518 3.499-3.499 8.878-6.867 16.138-10.103s13.296-6.867 18.107-10.89c4.811-4.024 7.916-9.709 9.316-17.057-0.35-0.7-0.7-2.099-1.050-4.199s-0.962-3.674-1.837-4.723c-11.196-16.97-37.613-25.454-79.249-25.454-9.272 0-18.938 0.787-28.997 2.362s-18.631 3.324-25.717 5.248c-7.085 1.924-16.226 4.549-27.422 7.872-2.624 0.875-4.636 1.487-6.036 1.837-2.449 0.7-6.473 1.093-12.071 1.181s-9.097 0.219-10.497 0.394c-7.173-7.872-18.325-13.558-33.458-17.057s-29.871-5.248-44.217-5.248c-6.123 0-12.159 0.131-18.107 0.394s-14.083 1.050-24.405 2.362c-10.322 1.312-19.156 3.105-26.504 5.38s-13.864 5.773-19.55 10.497c-5.686 4.723-8.528 10.322-8.528 16.795 0 6.998 0.875 12.202 2.624 15.614s5.336 7.654 10.759 12.727c1.924 0.35 5.467 1.487 10.628 3.411s9.491 2.974 12.99 3.149c0.7 0 1.924 0.175 3.674 0.525 0.35 0.35 0.525 0.7 0.525 1.050l-0.525 0.787c-8.397 1.924-17.844 11.153-28.341 27.685s-16.882 30.221-19.156 41.068l-1.312 0.787c-0.7 0-1.749-1.749-3.149-5.248-3.149-7.173-7.916-13.689-14.302-19.55s-13.164-9.141-20.337-9.841h-0.262c-0.7 0-1.225 0.394-1.574 1.181s-0.787 1.268-1.312 1.443c-4.024 9.447-6.036 18.194-6.036 26.241 0 48.11 22.043 88.871 66.128 122.285v0z" />
<glyph unicode="&#xe929;" glyph-name="bl_QR" d="M407.273 343.273v-41.891h-41.891v41.891h41.891zM407.273 594.618v-41.891h-41.891v41.891h41.891zM658.618 594.618v-41.891h-41.891v41.891h41.891zM323.491 259.818h125.673v125.345h-125.673v-125.345zM323.491 510.836h125.673v125.673h-125.673v-125.673zM574.836 510.836h125.673v125.673h-125.673v-125.673zM491.055 427.055v-209.455h-209.455v209.455h209.455zM658.618 259.491v-41.891h-41.891v41.891h41.891zM742.4 259.491v-41.891h-41.891v41.891h41.891zM742.4 427.055v-125.673h-125.673v41.891h-41.891v-125.673h-41.891v209.455h125.673v-41.891h41.891v41.891h41.891zM491.055 678.4v-209.455h-209.455v209.455h209.455zM742.4 678.4v-209.455h-209.455v209.455h209.455z" />
<glyph unicode="&#xe92a;" glyph-name="download_apple" horiz-adv-x="819" d="M725.748 286.262c27.174-39.834 58.325-65.588 93.452-77.264-15.244-48.762-39.436-99.584-72.575-152.467-51.034-79.667-101.406-119.501-151.115-119.501-18.558 0-46.063 6.524-82.517 19.573-33.802 13.049-63.296 19.573-88.482 19.573s-53.023-6.868-83.511-20.604c-31.814-13.049-57.994-19.573-78.54-19.573-59.651 0-118.307 52.539-175.969 157.618-57.662 103.705-86.493 205.693-86.493 305.964 0 92.716 21.872 168.606 65.616 227.67 45.069 59.064 100.743 88.596 167.021 88.596 14.581 0 30.819-1.889 48.715-5.666s36.453-10.817 55.674-21.119c20.546-11.675 37.447-19.745 50.703-24.209s23.529-6.696 30.819-6.696c8.616 0 21.872 2.060 39.767 6.181s35.79 11.675 53.685 22.664c19.221 10.989 35.79 19.23 49.709 24.724s28.168 8.241 42.749 8.241c46.395 0 88.15-13.049 125.266-39.147 19.884-13.736 40.098-33.996 60.645-60.781-30.488-27.471-52.691-51.509-66.61-72.113-25.849-38.46-38.773-80.354-38.773-125.682 0-50.135 13.587-95.463 40.761-135.984v0zM525.918 767.356c-23.197-22.664-44.406-37.43-63.627-44.298-6.628-2.060-15.078-3.949-25.351-5.666s-22.038-3.262-35.293-4.636c0.663 60.437 15.907 112.633 45.732 156.588s78.871 74.173 147.138 90.656c1.326-6.868 2.32-11.675 2.983-14.423v-11.332c0-24.724-5.634-52.539-16.901-83.445-11.93-30.219-30.157-58.034-54.68-83.445v0z" />
<glyph unicode="&#xe92b;" glyph-name="pay_wechat" d="M704-64v64h256v256h64v-320h-320zM0 480h1024v-64h-1024v64zM960 896h-256v64h320v-320h-64v256zM64 896v-256h-64v320h320v-64h-256zM64 0h256v-64h-320v320h64v-256z" />
<glyph unicode="&#xe92c;" glyph-name="list_left2" d="M410.172 448c-1.801 8.524 0.65 17.734 7.295 24.358l138.939 138.513c10.392 10.36 27.381 10.423 37.821 0.015 10.513-10.481 10.434-27.289-0.015-37.705l-125.565-125.18 125.565-125.18c10.448-10.416 10.527-27.225 0.015-37.705-10.44-10.408-27.43-10.345-37.821 0.015l-138.939 138.513c-6.645 6.625-9.096 15.835-7.295 24.358v0z" />
<glyph unicode="&#xe92d;" glyph-name="list_left1" d="M496.486 473.063l137.842 137.645c10.695 10.68 27.814 10.561 38.446-0.055 10.706-10.691 10.657-27.805 0.055-38.391l-124.44-124.261 124.44-124.261c10.601-10.586 10.651-27.701-0.055-38.391-10.632-10.617-27.751-10.735-38.446-0.055l-137.842 137.645c-6.814 6.804-9.269 16.305-7.31 25.063-1.958 8.759 0.497 18.259 7.31 25.063zM341.333 591.8c0 14.414 11.572 26.099 26.070 26.099 14.398 0 26.070-11.697 26.070-26.099v-287.601c0-14.414-11.572-26.099-26.070-26.099-14.398 0-26.070 11.697-26.070 26.099v287.601z" />
<glyph unicode="&#xe92e;" glyph-name="list_right1" d="M532.95 448c1.958 8.759-0.497 18.259-7.31 25.063l-137.842 137.645c-10.695 10.68-27.814 10.561-38.446-0.055-10.706-10.691-10.657-27.805-0.055-38.391l124.44-124.261-124.44-124.261c-10.601-10.586-10.651-27.701 0.055-38.391 10.632-10.617 27.751-10.735 38.446-0.055l137.842 137.645c6.814 6.804 9.269 16.305 7.31 25.063v0 0 0 0 0zM680.792 591.8c0 14.414-11.572 26.099-26.070 26.099-14.398 0-26.070-11.697-26.070-26.099v-287.601c0-14.414 11.572-26.099 26.070-26.099 14.398 0 26.070 11.697 26.070 26.099v287.601z" />
<glyph unicode="&#xe92f;" glyph-name="list_right2" d="M601.509 448c1.801 8.524-0.65 17.734-7.295 24.358l-138.939 138.513c-10.392 10.36-27.381 10.423-37.821 0.015-10.513-10.481-10.434-27.289 0.015-37.705l125.565-125.18-125.565-125.18c-10.448-10.416-10.527-27.225-0.015-37.705 10.44-10.408 27.43-10.345 37.821 0.015l138.939 138.513c6.645 6.625 9.096 15.835 7.295 24.358v0z" />
<glyph unicode="&#xe930;" glyph-name="download_Android" horiz-adv-x="819" d="M286.836 741.538c6.206 0 11.539 2.359 16 7.077s6.691 10.359 6.691 16.923c0 6.564-2.23 12.205-6.691 16.923s-9.794 7.077-16 7.077c-6.206 0-11.442-2.359-15.709-7.077s-6.4-10.359-6.4-16.923c0-6.564 2.133-12.205 6.4-16.923s9.503-7.077 15.709-7.077v0 0 0 0 0zM532.364 741.538c6.206 0 11.442 2.359 15.709 7.077s6.4 10.359 6.4 16.923c0 6.564-2.133 12.205-6.4 16.923s-9.503 7.077-15.709 7.077c-6.206 0-11.539-2.359-16-7.077s-6.691-10.359-6.691-16.923c0-6.564 2.23-12.205 6.691-16.923s9.794-7.077 16-7.077v0 0 0 0 0zM59.927 628.308c16.291 0 30.254-6.154 41.891-18.461s17.455-27.077 17.455-44.308v-264.615c0-17.641-5.721-32.615-17.164-44.923s-25.503-18.462-42.182-18.462c-16.679 0-30.836 6.154-42.473 18.462s-17.455 27.282-17.455 44.923v264.615c0 17.231 5.818 32 17.455 44.308s25.794 18.461 42.473 18.461v0 0 0 0 0zM676.655 616.615v-409.846c0-18.872-6.206-34.872-18.618-48s-27.345-19.692-44.8-19.692h-43.636v-139.692c0-17.641-5.818-32.615-17.455-44.923s-25.794-18.462-42.473-18.462c-16.679 0-30.836 6.154-42.473 18.462s-17.454 27.282-17.454 44.923v139.692h-80.291v-139.692c0-17.641-5.818-32.615-17.454-44.923s-25.794-18.462-42.473-18.462c-16.291 0-30.254 6.154-41.891 18.462s-17.454 27.282-17.454 44.923l-0.582 139.692h-43.055c-17.842 0-32.97 6.564-45.382 19.692s-18.618 29.128-18.618 48v409.846h534.109zM541.673 865.846c41.503-22.564 74.667-54.051 99.491-94.462s37.236-84.615 37.236-132.615h-538.182c0 48 12.412 92.205 37.236 132.615s58.182 71.897 100.073 94.462l-41.309 80.615c-2.715 5.333-1.746 9.436 2.909 12.308 5.042 2.462 8.921 1.231 11.636-3.692l41.891-81.231c36.849 17.231 75.83 25.846 116.945 25.846s80.097-8.615 116.946-25.846l41.891 81.231c2.715 4.923 6.594 6.154 11.636 3.692 4.655-2.872 5.624-6.974 2.909-12.308l-41.309-80.615zM819.2 565.538v-264.615c0-17.641-5.818-32.615-17.454-44.923s-25.794-18.462-42.473-18.462c-16.291 0-30.255 6.154-41.891 18.462s-17.454 27.282-17.454 44.923v264.615c0 17.641 5.818 32.513 17.454 44.615s25.6 18.154 41.891 18.154c16.679 0 30.836-6.051 42.473-18.154s17.454-26.974 17.454-44.615v0 0 0 0 0z" />
<glyph unicode="&#xe931;" glyph-name="pay_minus" horiz-adv-x="1008" d="M504.242 948.364c-69.495 0-134.949-13.131-196.364-39.394s-114.949-62.222-160.606-107.879c-45.657-45.657-81.616-99.192-107.879-160.606s-39.394-126.868-39.394-196.364c0-69.495 13.131-134.949 39.394-196.364s62.222-114.949 107.879-160.606c45.657-45.657 99.192-81.616 160.606-107.879s126.868-39.394 196.364-39.394c69.495 0 134.949 13.131 196.364 39.394s114.949 62.222 160.606 107.879c45.657 45.657 81.616 99.192 107.879 160.606s39.394 126.868 39.394 196.364c0 69.495-13.131 134.949-39.394 196.364s-62.222 114.949-107.879 160.606c-45.657 45.657-99.192 81.616-160.606 107.879s-126.868 39.394-196.364 39.394v0zM756.364 429.576c0-10.505-3.838-19.596-11.515-27.273s-16.768-11.515-27.273-11.515h-426.667c-10.505 0-19.596 3.838-27.273 11.515s-11.515 16.768-11.515 27.273v38.788c0 10.505 3.838 19.596 11.515 27.273s16.768 11.515 27.273 11.515h426.667c10.505 0 19.596-3.838 27.273-11.515s11.515-16.768 11.515-27.273v-38.788z" />
<glyph unicode="&#xe932;" glyph-name="pay_plus" d="M512-64c-70.564 0-137.025 13.333-199.385 40s-116.718 63.179-163.077 109.538c-46.359 46.359-82.872 100.718-109.538 163.077s-40 128.82-40 199.385c0 70.564 13.333 137.025 40 199.385s63.179 116.718 109.538 163.077c46.359 46.359 100.718 82.872 163.077 109.539s128.82 40 199.385 40c70.564 0 137.025-13.333 199.385-40s116.718-63.179 163.077-109.539c46.359-46.359 82.872-100.718 109.539-163.077s40-128.82 40-199.385c0-70.564-13.333-137.025-40-199.385s-63.179-116.718-109.539-163.077c-46.359-46.359-100.718-82.872-163.077-109.538s-128.82-40-199.385-40v0zM765.538 470.154c0 10.667-3.897 19.897-11.692 27.692s-17.025 11.692-27.692 11.692h-157.538v157.538c0 10.667-3.897 19.897-11.692 27.692s-17.025 11.692-27.692 11.692h-39.385c-10.667 0-19.897-3.897-27.692-11.692s-11.692-17.025-11.692-27.692v-157.538h-157.538c-10.667 0-19.897-3.897-27.692-11.692s-11.692-17.025-11.692-27.692v-39.385c0-10.667 3.897-19.897 11.692-27.692s17.025-11.692 27.692-11.692h157.538v-157.538c0-10.667 3.897-19.897 11.692-27.692s17.025-11.692 27.692-11.692h39.385c10.667 0 19.897 3.897 27.692 11.692s11.692 17.025 11.692 27.692v157.538h157.538c10.667 0 19.897 3.897 27.692 11.692s11.692 17.025 11.692 27.692v39.385z" />
<glyph unicode="&#xe933;" glyph-name="aboutus_a1" d="M465.381 852.896c-59.030-12.649-100.423-49.817-111.723-100.201-4.345-20.332-3.466-74.874 1.73-103.457 4.639-23.892 4.639-24.459-1.73-35.973-5.488-10.048-6.078-14.174-4.61-34.808 3.758-51.010 15.324-81.66 32.409-87.253 4.928-1.763 8.981-3.258 9.538-3.528 0.587-0.3 2.612-17.104 4.639-37.136 3.463-34.775 4.344-37.142 14.471-50.717 12.741-17.096 13.298-24.157 2.612-26.517-6.664-1.47-10.422-6.491-20.252-26.228-15.061-29.482-23.72-38.339-42.83-43.029-7.808-2.060-49.492-18.572-92.615-36.838-42.825-18.572-88.268-37.138-100.712-41.564-53.252-19.466-66.286-35.678-71.479-88.448-1.47-16.266-2.909-45.149-2.909-64.020v-34.778h389.538l13.885 97.004 13.885 97.269-17.935 25.357c-10.13 13.846-17.643 25.657-17.088 26.227 0.589 0.599 13.885 9.151 29.237 19.466l28.357 18.267 28.943-18.867c16.504-10.616 28.355-20.037 27.509-22.097-0.588-2.065-8.693-13.541-17.647-25.927l-16.204-22.097 27.774-194.538h390.385l-1.733 55.135c-3.171 97.568-9.543 108.49-80.458 134.707-15.061 5.595-59.624 23.862-99.544 40.969-39.655 17.101-78.7 32.713-86.83 34.773-19.115 4.431-27.77 13.547-42.836 43.029-9.828 19.762-13.588 24.758-19.959 26.228-11.006 2.36-10.417 9.421 2.327 26.517 10.122 13.546 11.005 15.907 14.471 51.285 2.317 20.331 4.050 37.136 4.050 37.733 0 0.3 2.906 0.6 6.662 0.6 14.767 0 26.332 22.097 32.704 61.899 5.782 35.373 5.193 50.712-2.028 63.093-5.493 9.716-5.788 10.913-1.174 34.773 5.223 28.288 6.077 83.128 1.729 103.462-11.566 51.279-52.949 87.85-113.721 100.529-28.089 5.921-83.364 5.921-110.84-0.3v0 0z" />
<glyph unicode="&#xe934;" glyph-name="aboutus_a2" d="M441.413 137.724c-4.859 4.817-12.738 4.817-17.581 0l-37.376 36.864c49.001 65.215 43.76 157.872-16.146 216.953-65.88 65.017-173.097 65.033-238.976 0.016-65.886-64.988-65.886-170.755 0-235.757 59.892-59.082 153.839-64.26 219.937-15.906l37.376-36.876c-4.859-4.794-4.859-12.566 0-17.361l85.77-84.625c2.34-2.283 5.504-3.591 8.799-3.591 3.303 0 6.466 1.307 8.806 3.591l35.185 34.733c4.851 4.794 4.851 12.558 0 17.352l-85.793 84.609zM312.548 212.786c-34.018-33.574-89.433-33.574-123.459-0.016-34.042 33.597-34.042 88.247 0 121.829 34.026 33.558 89.441 33.558 123.459-0.023 34.027-33.557 34.027-88.208 0-121.79v0zM464.841 605.591c53.524-160.343 202.721-160.114 256.16 0 17.546 9.127 35.673 36.25 38.707 58.632 3.102 23.367 1.279 54.56-22.703 54.56-5.256 75.246-47.154 138.818-142.081 138.818-92.932 0-140.234-55.151-146.096-138.818-23.944 0-25.813-31.148-22.687-54.56 3.027-22.382 21.141-49.504 38.699-58.632v0zM779.576 475.51l-60.562 12.456-126.108-247.968-126.084 247.968-60.564-12.456c-25.961-5.344-49.172-16.28-69.401-30.603 18.644-9.113 35.919-21.076 51.042-35.998 62.141-61.294 73.728-157.275 30.454-231.053l12.193-12.042c10.636 0.649 20.916-3.274 28.458-10.729l84.118-82.973h378.477v236.883c-0.001 80.134-59.154 149.46-142.024 166.515v0z" />
<glyph unicode="&#xe935;" glyph-name="aboutus_a3" d="M136.968 734.72l-116.488-275.755 58.248-32.601 132.738 271.678-74.498 36.677zM510.811 554.053l-115.128-78.784c0 0-162.541-21.743-79.921 122.252l150.351 97.805c0 0-24.944 65.733-173.773-35.315l-63.262 21.733-90.765-255.379 73.152-77.431c0 0 66.365 59.77 117.837-9.518 0 0 69.080 72.007 125.292-35.308 0 0 102.268 39.384 67.050-100.529 0 0 40.218-25.977 50.123-71.997 0 0 47.399 4.072 71.779 58.42 0 0 46.063 6.781 70.443 55.684 0 0 51.459 10.873 56.89 50.269l-231.621 258.099c0 0-17.613 9.508-28.447 0v0zM255.825 351.992l-44.359-50.941c0 0-9.483-57.053 44.359-44.826l50.792 57.053c0-0.002 1.017 47.882-50.792 38.713v0zM354.367 335.692l-59.937-75.393c-16.252-64.184 55.875-57.053 55.875-57.053l69.080 94.751c-23.367 67.24-65.017 37.695-65.017 37.695v0zM439.699 277.619l-62.985-84.562c-9.469-59.406 53.842-55.015 53.842-55.015l72.127 85.582c-3.047 69.276-62.985 53.994-62.985 53.994v0zM492.526 169.625l-32.507-40.085c-9.486-59.423 42.667-49.569 42.667-49.569l37.587 41.769c16.26 59.091-47.747 47.884-47.747 47.884v0zM646.942 682.083c0 0-40.632 28.529-99.559 19.358l-221.463-148.745c0 0-34.27-70.689 39.62-59.089l153.399 95.766c0 0 18.287 4.077 21.335-3.056l176.769-193.573 72.127-79.465c0 0 65.020 10.189 92.447 105.955l-120.892 227.192c0 0-92.444-20.378-113.782 35.657v0zM864.341 734.72l-70.095-65.88 135.114-249.606 74.16 47.882-139.179 267.604z" />
<glyph unicode="&#xe936;" glyph-name="aboutus_a4" d="M163.84 878.080v-860.16h716.8v860.16h-716.8zM268.354 764.889h512.8v-172.829h-512.8v172.829zM556.97 147.408h-287.718v77.287h287.754v-77.287h-0.036zM782.088 294.084h-512.836v77.216h512.836v-77.216zM783.381 440.723h-512.836v77.287h512.836v-77.287z" />
<glyph unicode="&#xe937;" glyph-name="aboutus_a5" d="M882.103 837.12h-719.726c-33.137 0-59.977-27.155-59.977-60.681v-515.793c0-33.527 26.84-60.681 59.977-60.681h149.943v-182.044l329.844 182.044h239.939c33.137 0 59.977 27.155 59.977 60.681v515.793c0 33.527-26.84 60.681-59.977 60.681v0zM312.32 473.031c-33.137 0-59.977 27.155-59.977 60.681 0 33.496 26.84 60.681 59.977 60.681s59.977-27.155 59.977-60.681c0-33.527-26.84-60.681-59.977-60.681v0zM522.24 473.031c-33.137 0-59.977 27.155-59.977 60.681 0 33.496 26.84 60.681 59.977 60.681s59.977-27.155 59.977-60.681c0-33.527-26.84-60.681-59.977-60.681v0zM732.16 473.031c-33.137 0-59.977 27.155-59.977 60.681 0 33.496 26.84 60.681 59.977 60.681s59.977-27.155 59.977-60.681c0-33.527-26.84-60.681-59.977-60.681v0z" />
<glyph unicode="&#xe938;" glyph-name="aboutus_dingwei" d="M512.002 960c-212.063 0-384.002-171.958-384.002-384.019 0-212.060 384.002-639.981 384.002-639.981s383.998 427.921 383.998 639.981c0 212.061-171.938 384.019-383.998 384.019v0zM742.4 575.981c0-127.23-103.149-230.41-230.398-230.41-127.253 0-230.402 103.18-230.402 230.41 0 127.256 103.149 230.411 230.402 230.411 127.249 0 230.398-103.154 230.398-230.411v0z" />
<glyph unicode="&#xe939;" glyph-name="adoutus_question" d="M769.202 448c0-14.423-5.208-26.441-15.624-36.056s-22.836-14.423-37.258-14.423h-512l-204.319-206.723v718.723c0 14.423 4.807 26.441 14.423 36.056s21.634 14.423 36.056 14.423h665.84c14.423 0 26.842-4.808 37.258-14.423s15.624-21.634 15.624-36.056v-461.521zM973.521 755.681c14.423 0 26.441-4.808 36.056-14.423s14.423-21.634 14.423-36.056v-769.202l-204.319 204.319h-564.883c-14.423 0-26.441 4.808-36.056 14.423s-14.423 21.634-14.423 36.056v103.362h665.84v461.521h103.361z" />
<glyph unicode="&#xe93a;" glyph-name="banner_left2" d="M317.333 448l480 438.667c8.889 8 13.333 18 13.333 30s-4.444 22-13.333 30c-8 8.889-18 13.333-30 13.333s-22-4.444-30-13.333l-512-466.667c-4.444-4.445-7.556-9.333-9.333-14.667s-2.667-11.111-2.667-17.333c0-6.222 0.889-12 2.667-17.333s4.889-10.222 9.333-14.667l512-466.667c8-8.889 18-13.333 30-13.333s22 4.444 30 13.333c8.889 8 13.333 18 13.333 30s-4.444 22-13.333 30l-480 438.667z" />
<glyph unicode="&#xe93b;" glyph-name="banner_right2" d="M706.667 448l-480 438.667c-8.889 8-13.333 18-13.333 30s4.444 22 13.333 30c8 8.889 18 13.333 30 13.333s22-4.444 30-13.333l512-466.667c4.444-4.445 7.556-9.333 9.333-14.667s2.667-11.111 2.667-17.333c0-6.222-0.889-12-2.667-17.333s-4.889-10.222-9.333-14.667l-512-466.667c-8-8.889-18-13.333-30-13.333s-22 4.444-30 13.333c-8.889 8-13.333 18-13.333 30s4.444 22 13.333 30l480 438.667z" />
<glyph unicode="&#xe93c;" glyph-name="header_app" d="M170.667 824.021v-752.041c0-74.99 61.116-135.979 136.507-135.979h409.653c75.925 0 136.507 60.88 136.507 135.979v752.041c0 74.99-61.116 135.979-136.507 135.979h-409.653c-75.925 0-136.507-60.88-136.507-135.979zM307.2 823.467h409.6v-477.867h-409.6v477.867zM307.2 209.067h409.6v-136.533h-409.6v136.533z" />
<glyph unicode="&#xe93d;" glyph-name="index_lt_ico1" d="M545.831 48.632h176.993v-37.338h-391.529v37.338h177.463v143.368h37.074v-143.368zM0 884.706v-692.706h1024v692.706h-1024zM38.040 845.985h947.886v-616.544h-947.886v616.544zM180.706 704h662.588v-38.426h-662.588v38.426zM180.706 553.412h361.412v-39.654h-361.412v39.654z" />
<glyph unicode="&#xe93e;" glyph-name="index_lt_ico2" d="M28.444 960v-597.333h967.111v597.333h-967.111zM66.874 924.033h892.126v-525.893h-892.126v525.893zM28.444 312.27h967.111v-34.937h-967.111v34.937zM371.918 220.73l29.147-29.147-241.359-241.359-29.147 29.147 241.359 241.359zM675.026 220.73l-27.852-27.852 241.359-241.359 27.852 27.852-241.359 241.359z" />
<glyph unicode="&#xe93f;" glyph-name="index_lt_ico3" d="M978.824 192.314c0-7.168-2.901-12.084-8.601-14.951l-449.518-239.212h-2.176c-1.451-1.434-3.627-2.15-6.528-2.15s-5.078 0.717-6.528 2.15h-2.072l-449.518 239.212c-5.803 2.867-8.704 7.783-8.704 14.951v514.675c0 1.331 0.725 2.867 2.176 4.301v2.15l6.528 6.451 449.518 239.11c5.803 1.331 11.502 1.331 17.305 0l449.518-239.212 6.528-6.451v-2.15l2.072-4.198v-514.675zM79.787 202.963l414.908-222.111v474.124l-414.908 222.111v-474.124zM99.268 704.838l412.732-219.961 412.732 219.961-412.732 219.961-412.732-219.961zM944.213 202.963v474.124l-414.908-222.111v-474.124l414.908 222.111z" />
<glyph unicode="&#xe940;" glyph-name="index_play" d="M512-64v0 0 0c-282.77 0-512 229.23-512 512s229.23 512 512 512c282.77 0 512-229.23 512-512s-229.23-512-512-512zM512-27.429c262.572 0 475.429 212.857 475.429 475.429s-212.857 475.429-475.429 475.429c-262.572 0-475.429-212.857-475.429-475.429s212.857-475.429 475.429-475.429v0 0 0zM686.961 466.897l-252.675 160.147c-7.481 3.813-14.684 4.766-21.61 2.86s-10.39-9.941-10.39-24.104v-315.391c0-13.073 3.671-20.972 11.013-23.695s14.338-1.907 20.987 2.451l252.675 160.147c5.264 5.175 7.896 11.439 7.896 18.793s-2.632 13.618-7.896 18.793v0 0 0z" />
<glyph unicode="&#xe941;" glyph-name="footer_qq" d="M147.338 495.85c-2.967 7.048-4.451 16.692-4.451 28.932 0 7.419 2.040 16.506 6.12 27.263s8.531 19.103 13.353 25.038c-0.371 8.16 1.020 17.99 4.173 29.489s7.326 19.474 12.519 23.925c0 51.559 17.155 105.065 51.466 160.519s74.649 94.308 121.015 116.564c51.559 24.481 111.649 36.722 180.271 36.722 49.334 0 98.666-10.2 148-30.602 18.176-7.789 34.867-16.692 50.075-26.707s28.376-20.401 39.504-31.158c11.128-10.757 21.328-23.368 30.602-37.835s17.063-28.19 23.368-41.173c6.306-12.982 12.333-28.654 18.083-47.015s10.479-34.96 14.188-49.797c3.709-14.837 7.789-33.012 12.241-54.526l0.556-2.782c20.401-30.787 30.602-58.606 30.602-83.459 0-5.193-1.669-12.611-5.008-22.256s-5.007-16.692-5.007-21.143c0-0.371 0.278-1.020 0.835-1.947s1.206-1.855 1.947-2.782c0.742-0.927 1.113-1.576 1.113-1.947 28.562-42.286 50.91-82.067 67.045-119.346s24.203-75.947 24.203-116.008c0-15.95-3.617-34.496-10.85-55.639s-17.526-31.714-30.88-31.714c-3.338 0-6.955 1.391-10.85 4.173s-7.419 6.028-10.571 9.737c-3.153 3.709-6.677 8.531-10.571 14.466s-6.862 10.85-8.902 14.744c-2.040 3.895-4.544 8.717-7.511 14.466s-4.637 8.995-5.007 9.737c-0.371 0.371-0.927 0.556-1.669 0.556l-2.782-2.226c-21.885-57.123-46.366-98.481-73.444-124.075 7.419-7.419 18.824-14.559 34.218-21.421s28.19-14.559 38.391-23.090c10.201-8.531 16.784-20.586 19.752-36.165-0.742-1.484-1.484-4.451-2.226-8.902s-2.040-7.789-3.895-10.015c-23.739-35.98-79.749-53.97-168.030-53.97-19.659 0-40.153 1.669-61.481 5.008s-39.504 7.048-54.526 11.128c-15.023 4.080-34.403 9.644-58.143 16.692-5.564 1.855-9.829 3.153-12.797 3.895-5.193 1.484-13.724 2.318-25.594 2.504s-19.288 0.464-22.256 0.835c-15.208-16.692-38.854-28.747-70.94-36.165s-63.336-11.128-93.752-11.128c-12.982 0-25.779 0.278-38.391 0.835s-29.859 2.226-51.744 5.008c-21.885 2.782-40.616 6.584-56.195 11.406s-29.396 12.241-41.451 22.256c-12.055 10.015-18.083 21.885-18.083 35.609 0 14.837 1.855 25.872 5.564 33.105s11.313 16.228 22.812 26.985c4.080 0.742 11.591 3.153 22.534 7.233s20.123 6.306 27.541 6.677c1.484 0 4.080 0.371 7.789 1.113 0.742 0.742 1.113 1.484 1.113 2.226l-1.113 1.669c-17.805 4.080-37.834 23.646-60.090 58.699s-35.794 64.078-40.616 87.075l-2.782 1.669c-1.484 0-3.709-3.709-6.677-11.128-6.677-15.208-16.784-29.025-30.323-41.451s-27.912-19.381-43.12-20.865h-0.556c-1.484 0-2.596 0.835-3.338 2.504s-1.669 2.689-2.782 3.060c-8.531 20.030-12.797 38.576-12.797 55.639 0 102.005 46.736 188.431 140.21 259.278v0z" />
<glyph unicode="&#xe942;" glyph-name="footer_wechat" horiz-adv-x="1280" d="M353.508 720.6c0 16.4-5 29.6-15 39.6s-23.2 15-39.6 15c-17.2 0-32.4-5.1-45.6-15.3s-19.8-23.3-19.8-39.3c0-15.6 6.6-28.5 19.8-38.7s28.4-15.3 45.6-15.3c16.4 0 29.6 4.9 39.6 14.7s15 22.9 15 39.3v0zM799.308 416.4c0 11.2-5.1 21.2-15.3 30s-23.3 13.2-39.3 13.2c-10.8 0-20.7-4.5-29.7-13.5s-13.5-18.9-13.5-29.7c0-11.2 4.5-21.3 13.5-30.3s18.9-13.5 29.7-13.5c16 0 29.1 4.4 39.3 13.2s15.3 19 15.3 30.6v0zM657.708 720.6c0 16.4-4.9 29.6-14.7 39.6s-22.9 15-39.3 15c-17.2 0-32.4-5.1-45.6-15.3s-19.8-23.3-19.8-39.3c0-15.6 6.6-28.5 19.8-38.7s28.4-15.3 45.6-15.3c16.4 0 29.5 4.9 39.3 14.7s14.7 22.9 14.7 39.3v0zM1038.708 416.4c0 11.2-5.2 21.2-15.6 30s-23.4 13.2-39 13.2c-10.8 0-20.7-4.5-29.7-13.5s-13.5-18.9-13.5-29.7c0-11.2 4.5-21.3 13.5-30.3s18.9-13.5 29.7-13.5c15.6 0 28.6 4.4 39 13.2s15.6 19 15.6 30.6v0zM879.108 654.6c-12.4 1.6-26.4 2.4-42 2.4-67.6 0-129.8-15.4-186.6-46.2s-101.5-72.5-134.1-125.1c-32.6-52.6-48.9-110.1-48.9-172.5 0-31.2 4.6-61.6 13.8-91.2-14-1.2-27.6-1.8-40.8-1.8-10.4 0-20.4 0.3-30 0.9s-20.6 1.9-33 3.9c-12.4 2-21.3 3.4-26.7 4.2s-16.3 2.9-32.7 6.3c-16.4 3.4-26.4 5.5-30 6.3l-151.8-76.2 43.2 130.8c-116.001 81.2-174 179.199-174 294 0 67.6 19.5 129.8 58.5 186.6s91.8 101.5 158.4 134.1c66.6 32.6 139.3 48.9 218.1 48.9 70.4 0 136.9-13.2 199.5-39.6s115-62.9 157.2-109.5c42.2-46.6 69.5-98.7 81.9-156.3v0zM1234.308 318c0-46.8-13.7-91.5-41.1-134.1s-64.5-81.3-111.3-116.1l33-108.6-119.4 65.4c-60-14.8-103.6-22.2-130.8-22.2-67.6 0-129.8 14.1-186.6 42.3s-101.5 66.5-134.1 114.9c-32.6 48.4-48.9 101.2-48.9 158.4s16.3 110 48.9 158.4c32.6 48.4 77.3 86.7 134.1 114.9s119 42.3 186.6 42.3c64.4 0 125-14.1 181.8-42.3s102.3-66.6 136.5-115.2c34.2-48.6 51.3-101.3 51.3-158.1v0z" />
<glyph unicode="&#xe943;" glyph-name="footer_weibo" horiz-adv-x="1229" d="M459.176 174.716c9.524 15.419 12.018 31.065 7.483 46.938s-14.739 27.21-30.612 34.013c-15.419 6.349-31.972 6.576-49.659 0.68s-31.292-16.326-40.816-31.292c-9.977-15.419-12.925-30.952-8.843-46.598s13.832-27.097 29.251-34.353c15.419-7.256 32.312-7.823 50.679-1.701s32.539 16.893 42.516 32.312v0zM523.121 257.028c3.628 5.896 4.422 11.905 2.381 18.027s-6.009 10.317-11.905 12.585c-6.349 2.268-12.812 2.154-19.387-0.34s-11.451-6.689-14.626-12.585c-7.71-14.059-4.762-24.263 8.843-30.612 6.349-2.268 12.925-2.154 19.728 0.34s11.791 6.689 14.966 12.585v0zM641.486 184.24c-20.408-46.258-56.235-80.271-107.481-102.039s-102.039-24.489-152.378-8.163c-48.526 15.419-81.971 44.103-100.338 86.053s-16.893 84.466 4.422 127.549c21.315 42.176 55.668 73.695 103.059 94.556s95.123 25.17 143.195 12.925c50.34-13.152 86.28-40.248 107.821-81.291s22.109-84.239 1.701-129.59v0zM853.728 293.081c-4.082 43.537-24.262 82.085-60.543 115.644s-83.558 58.276-141.834 74.148c-58.276 15.873-120.519 20.635-186.732 14.285-101.133-10.431-184.917-42.516-251.356-96.257s-96.484-113.717-90.135-179.929c4.082-43.537 24.262-82.085 60.543-115.644s83.558-58.276 141.834-74.148c58.276-15.873 120.519-20.635 186.732-14.285 101.133 10.431 184.917 42.516 251.356 96.257s96.484 113.717 90.135 179.929v0zM1063.248 290.36c0-30.839-8.39-62.47-25.17-94.896s-41.496-63.491-74.148-93.196c-32.653-29.705-70.86-56.348-114.624-79.931s-95.010-42.403-153.739-56.462c-58.729-14.059-120.066-21.088-184.011-21.088s-126.301 7.596-187.072 22.789c-60.77 15.193-115.304 36.28-163.603 63.264s-87.187 61.223-116.665 102.719c-29.478 41.496-44.217 86.733-44.217 135.712 0 52.154 15.759 107.708 47.278 166.664s76.302 117.458 134.352 175.507c76.643 76.643 154.079 130.156 232.309 160.542s134.125 28.798 167.684-4.762c29.478-29.025 34.013-76.416 13.605-142.174-1.814-6.349-2.041-10.884-0.68-13.605s3.628-4.308 6.803-4.762c3.175-0.453 6.462-0.34 9.864 0.34s6.462 1.474 9.184 2.381l4.081 1.361c63.038 26.757 118.819 40.135 167.344 40.135s83.218-13.832 104.080-41.496c20.408-28.571 20.408-68.933 0-121.087-0.907-5.895-1.927-10.431-3.061-13.605s-0.113-6.009 3.061-8.503c3.175-2.494 5.896-4.195 8.163-5.102s6.122-2.268 11.564-4.082c25.85-8.163 49.205-18.82 70.067-31.972s39.002-31.632 54.421-55.441c15.419-23.809 23.129-50.226 23.129-79.25v0zM1012.908 714.843c19.047-21.315 31.405-45.917 37.074-73.808s4.195-54.534-4.422-79.931c-3.628-10.431-10.317-18.14-20.068-23.129s-19.841-5.896-30.272-2.721c-10.431 3.628-18.14 10.317-23.129 20.068s-5.896 19.841-2.721 30.272c9.070 28.571 3.628 53.741-16.326 75.509s-44.217 29.705-72.788 23.809c-10.884-2.268-21.088-0.454-30.612 5.442s-15.192 14.285-17.006 25.17c-2.268 10.884-0.454 20.975 5.442 30.271s14.285 15.079 25.17 17.347c27.211 5.896 54.194 4.648 80.951-3.741s49.659-23.242 68.706-44.557v0zM1136.036 825.726c39.455-43.537 64.965-93.989 76.529-151.358s8.503-112.129-9.184-164.283c-4.081-12.245-11.791-21.315-23.129-27.21s-23.129-6.803-35.374-2.721c-12.245 4.082-21.315 11.791-27.211 23.129s-7.029 23.129-3.401 35.373c12.698 37.188 14.966 76.189 6.803 117.005s-26.303 76.643-54.421 107.481c-28.118 31.292-61.677 52.947-100.679 64.965s-78.23 13.945-117.685 5.782c-12.698-2.721-24.489-0.567-35.374 6.463s-17.687 16.893-20.408 29.591c-2.721 12.698-0.567 24.376 6.463 35.033s16.893 17.347 29.591 20.068c55.782 11.791 111.109 9.184 165.984-7.823s102.039-47.505 141.494-91.495v0z" />
<glyph unicode="&#xe944;" glyph-name="index_lt_ico4" horiz-adv-x="614" d="M288.231 899.189c-160.86-9.797-288.231-143.359-288.231-306.684v-349.246c0-169.688 137.538-307.259 307.2-307.259 169.699 0 307.2 137.565 307.2 307.259v349.246c0 163.031-126.958 296.416-287.387 306.631v41.471c0 10.497-8.682 19.393-19.391 19.393-10.784 0-19.391-8.683-19.391-19.393v-41.418zM39.44 593.361c0 148.547 120.296 268.968 268.762 268.968 148.433 0 268.762-120.279 268.762-268.968v-350.49c0-148.547-120.296-268.968-268.762-268.968-148.433 0-268.762 120.279-268.762 268.968v350.49zM288.231 639.465c0 10.614 8.607 19.219 19.391 19.219 10.709 0 19.391-8.662 19.391-19.219v-141.15c0-10.614-8.607-19.219-19.391-19.219-10.709 0-19.391 8.662-19.391 19.219v141.15z" />
<glyph unicode="&#xe945;" glyph-name="index_lt_ico5" horiz-adv-x="967" d="M0 960v-597.333h967.111v597.333h-967.111zM38.43 924.033h892.126v-525.893h-892.126v525.893zM0 312.27h967.111v-34.937h-967.111v34.937zM343.473 220.73l29.147-29.147-241.359-241.359-29.147 29.147 241.359 241.359zM646.581 220.73l-27.852-27.852 241.359-241.359 27.852 27.852-241.359 241.359zM142.222 817.778h682.667v-34.133h-682.667v34.133zM142.222 675.556h284.444v-34.133h-284.444v34.133z" />
<glyph unicode="&#xe946;" glyph-name="footer_app" horiz-adv-x="597" d="M504.607 169.123v651.438h-414.036v-651.438h414.036zM297.588-16.068c18.689 0 34.862 6.899 48.52 20.698s20.486 30.139 20.486 49.021c0 18.882-6.829 35.223-20.486 49.021s-29.831 20.698-48.52 20.698c-18.689 0-34.862-6.899-48.52-20.698s-20.486-30.139-20.486-49.021c0-18.882 6.829-35.223 20.486-49.021s29.831-20.698 48.52-20.698v0zM483.042 960c31.628 0 58.583-11.62 80.866-34.86s33.425-50.837 33.425-82.792v-788.698c0-31.955-11.141-59.552-33.425-82.792s-49.239-34.86-80.866-34.86h-368.751c-31.628 0-58.583 11.62-80.866 34.86s-33.425 50.837-33.425 82.792v788.698c0 31.955 11.142 59.552 33.425 82.792s49.238 34.86 80.866 34.86h368.751z" />
<glyph unicode="&#xe947;" glyph-name="ic_search2" d="M792.452 216.542l221.856-221.857c13.287-13.287 12.694-35.422-0.441-48.557-13.53-13.53-35.664-13.333-48.556-0.441l-221.856 221.857c-176.955-151.936-443.887-144.079-611.536 23.57-175.892 175.893-175.892 461.072 0 636.965s461.070 175.893 636.963 0c167.649-167.65 175.506-434.582 23.57-611.538zM719.885 240.113c148.832 148.833 148.832 390.138 0 538.97s-390.137 148.833-538.969 0c-148.832-148.832-148.832-390.138 0-538.97s390.137-148.832 538.969 0v0 0z" />
</font>
</defs>
</svg>
